<svg xmlns="http://www.w3.org/2000/svg" width="50" height="51" viewBox="0 0 50 51">
    <g fill="none" fill-rule="evenodd">
        <ellipse cx="25.068" cy="25.783" fill="#E0E1E2" rx="22.807" ry="22.991"/>
        <ellipse cx="25.068" cy="25.783" fill="#FFF" rx="13.158" ry="13.264"/>
        <path fill="#7B7FB2" d="M11.033 50.542a.871.871 0 0 1-.62-.259.888.888 0 0 1 0-1.25l3.45-3.478a.871.871 0 0 1 1.24 0 .888.888 0 0 1 0 1.25l-3.45 3.478a.871.871 0 0 1-.62.26zM39.104 50.542a.871.871 0 0 1-.62-.259l-3.477-3.504a.888.888 0 0 1 0-1.25.871.871 0 0 1 1.24 0l3.477 3.504a.888.888 0 0 1 0 1.25.871.871 0 0 1-.62.26z"/>
        <path fill="#C7CAC7" d="M40.94 10.055a.871.871 0 0 1-.62-.26.888.888 0 0 1 0-1.25l2.632-2.652a.871.871 0 0 1 1.24 0 .888.888 0 0 1 0 1.25l-2.631 2.653a.87.87 0 0 1-.62.259zM9.197 10.055a.871.871 0 0 1-.62-.26L5.946 7.144a.888.888 0 0 1 0-1.25.871.871 0 0 1 1.24 0l2.632 2.653a.888.888 0 0 1 0 1.25.868.868 0 0 1-.62.259z"/>
        <path fill="#8E94BE" d="M25.068 50.542C11.525 50.542.507 39.435.507 25.782c0-13.652 11.018-24.759 24.561-24.759S49.63 12.13 49.63 25.783c0 13.652-11.018 24.76-24.562 24.76zm0-45.982c-11.608 0-21.052 9.521-21.052 21.223 0 11.701 9.444 21.222 21.052 21.222 11.61 0 21.053-9.52 21.053-21.222 0-11.702-9.444-21.223-21.053-21.223z"/>
        <g fill="#26B99A">
            <path d="M25.068 5.337a.88.88 0 0 0-.877.885v.884a.88.88 0 0 0 .877.884.88.88 0 0 0 .878-.884v-.884a.88.88 0 0 0-.878-.885zM25.068 43.36a.88.88 0 0 0-.877.885v.884a.88.88 0 0 0 .877.885.88.88 0 0 0 .878-.885v-.884a.88.88 0 0 0-.878-.884zM44.367 24.791h-.878a.88.88 0 0 0-.877.885.88.88 0 0 0 .877.884h.878a.88.88 0 0 0 .877-.884.88.88 0 0 0-.877-.885zM6.647 24.791H5.77a.88.88 0 0 0-.877.885.88.88 0 0 0 .877.884h.877a.88.88 0 0 0 .878-.884.88.88 0 0 0-.878-.885zM38.094 11.294l-.62.625a.888.888 0 0 0 0 1.25.871.871 0 0 0 1.24 0l.62-.625a.888.888 0 0 0 0-1.25.871.871 0 0 0-1.24 0zM11.423 38.18l-.62.626a.888.888 0 0 0 0 1.25.871.871 0 0 0 1.24 0l.62-.625a.888.888 0 0 0 0-1.25.872.872 0 0 0-1.24 0zM38.714 38.18a.871.871 0 0 0-1.24 0 .888.888 0 0 0 0 1.251l.62.625a.871.871 0 0 0 1.24 0 .888.888 0 0 0 0-1.25l-.62-.625zM12.043 11.294a.871.871 0 0 0-1.24 0 .888.888 0 0 0 0 1.25l.62.625a.871.871 0 0 0 1.24 0 .888.888 0 0 0 0-1.25l-.62-.625z"/>
        </g>
        <path fill="#7B7FB2" d="M34.718 26.667H27.7a.88.88 0 0 1-.877-.884.88.88 0 0 1 .877-.885h7.018a.88.88 0 0 1 .877.885.88.88 0 0 1-.877.884zM25.068 24.014a.88.88 0 0 1-.877-.884v-9.727a.88.88 0 0 1 .877-.884.88.88 0 0 1 .878.884v9.727a.88.88 0 0 1-.878.884z"/>
        <path fill="#7B7FB2" d="M25.068 29.32c-1.935 0-3.508-1.587-3.508-3.537 0-1.951 1.573-3.537 3.508-3.537 1.936 0 3.51 1.586 3.51 3.537 0 1.95-1.574 3.537-3.51 3.537zm0-5.306c-.967 0-1.754.793-1.754 1.769 0 .975.787 1.768 1.754 1.768.968 0 1.755-.793 1.755-1.768 0-.976-.787-1.769-1.755-1.769z"/>
        <path fill="#E7ECED" d="M47.8 1.845a6.333 6.333 0 0 1 0 8.905l-8.834-8.905a6.213 6.213 0 0 1 8.835 0zM2.337 1.845a6.333 6.333 0 0 0 0 8.905l8.834-8.905a6.211 6.211 0 0 0-8.834 0z"/>
    </g>
</svg>
