<?xml version="1.0" standalone="no"?>
<!DOCTYPE svg PUBLIC "-//W3C//DTD SVG 1.1//EN" "http://www.w3.org/Graphics/SVG/1.1/DTD/svg11.dtd" >
<svg>
<metadata>
Created by FontForge 20090914 at Thu Nov 26 04:59:16 2015
 By www-data
[c] Copyright 1994-2004, The Font Bureau, Inc. Designed by David Berlow. Truth is a Trademark of The Font Bureau, Inc. All rights reserved.
</metadata>
<defs>
<font id="TruthCYR-Medium" horiz-adv-x="500" >
  <font-face 
    font-family="TruthCYR Medium"
    font-weight="500"
    font-stretch="normal"
    units-per-em="1000"
    panose-1="2 0 6 3 5 0 0 2 0 4"
    ascent="800"
    descent="-200"
    x-height="562"
    cap-height="737"
    bbox="-83 -240 1227 949"
    underline-thickness="20"
    underline-position="-113"
    stemh="110"
    stemv="156"
    unicode-range="U+0020-U+FB02"
  />
<missing-glyph 
 />
    <glyph glyph-name="fi" unicode="fi" horiz-adv-x="627" 
d="M561 0h-156v469h-166v-469h-156v470h-74v92h77v21c0 110 70 180 180 180c51 0 104 -15 139 -37l-41 -83c-17 13 -36 24 -67 24c-44 0 -57 -27 -57 -79v-26h321v-562z" />
    <glyph glyph-name="fl" unicode="fl" horiz-adv-x="623" 
d="M554 0h-156v630c-18 26 -50 37 -79 37c-60 0 -79 -37 -79 -89v-16h105v-93h-106v-469h-156v470h-74v92h77v5c0 111 63 196 180 196c53 0 104 -8 132 -26h156v-737z" />
    <glyph glyph-name=".notdef" 
 />
    <glyph glyph-name="space" unicode=" " horiz-adv-x="249" 
 />
    <glyph glyph-name="space" unicode="&#xa0;" horiz-adv-x="249" 
 />
    <glyph glyph-name="exclam" unicode="!" horiz-adv-x="346" 
d="M262 737l-19 -486h-140l-19 486h178zM251 0h-156v156h156v-156z" />
    <glyph glyph-name="quotedbl" unicode="&#x22;" horiz-adv-x="498" 
d="M458 737l-32 -237h-109l-26 237h167zM208 737l-32 -237h-109l-26 237h167z" />
    <glyph glyph-name="numbersign" unicode="#" horiz-adv-x="746" 
d="M746 562l-30 -117h-184l-36 -153h190l-28 -117h-189l-43 -175h-84l42 175h-114l-42 -175h-84l41 175h-185l26 117h187l36 153h-189l26 117h191l41 175h87l-42 -175h112l41 175h86l-42 -175h186zM447 445h-112l-37 -153h113z" />
    <glyph glyph-name="dollar" unicode="$" horiz-adv-x="583" 
d="M544 220c0 -130 -93 -218 -245 -228l-7 -75h-71l8 73c-83 2 -130 12 -183 26l1 120c34 -14 86 -37 192 -39l27 229c-122 55 -205 102 -205 218c0 126 105 196 251 202l8 84h73l-11 -86c48 -4 90 -11 122 -21v-111c-47 18 -82 24 -133 26l-21 -193
c154 -66 194 -137 194 -225zM299 639c-55 -10 -102 -28 -102 -70s12 -63 84 -95zM397 191c0 39 -14 73 -64 102l-21 -194c47 10 85 35 85 92z" />
    <glyph glyph-name="percent" unicode="%" horiz-adv-x="917" 
d="M421 563c0 -96 -74 -160 -186 -160c-110 0 -192 69 -192 159v27c0 83 71 159 192 159c120 0 186 -70 186 -159v-26zM771 737l-505 -737h-125l505 737h125zM868 149c0 -108 -76 -160 -184 -160c-117 0 -193 66 -193 159v27c0 81 70 159 193 159c116 0 184 -67 184 -159
v-26zM296 568v8c0 53 -8 89 -61 89c-50 0 -66 -35 -66 -89v-8c0 -48 17 -89 67 -89c48 0 60 37 60 89zM744 154v8c0 53 -9 89 -60 89s-67 -34 -67 -89v-8c0 -48 18 -89 68 -89c44 0 59 37 59 89z" />
    <glyph glyph-name="ampersand" unicode="&#x26;" horiz-adv-x="708" 
d="M356 390c48 -60 119 -136 119 -136c35 46 68 105 100 178l110 -60c-20 -57 -64 -139 -126 -212l142 -160h-154c-6 6 -34 37 -70 78c-64 -53 -140 -90 -224 -90c-143 0 -222 74 -222 187c0 95 40 151 161 236c-42 57 -77 119 -77 170c0 99 75 166 184 166
c130 0 193 -70 193 -158c0 -74 -32 -124 -136 -199zM289 480c50 38 74 72 74 101s-16 60 -62 60c-45 0 -58 -37 -58 -64c0 -21 20 -58 46 -97zM397 170c-69 80 -90 101 -133 153c-55 -41 -87 -82 -87 -129c0 -54 39 -82 95 -82c46 0 95 26 125 58z" />
    <glyph glyph-name="quotesingle" unicode="'" horiz-adv-x="250" 
d="M204 737l-18 -239h-122l-17 239h157z" />
    <glyph glyph-name="parenleft" unicode="(" horiz-adv-x="415" 
d="M362 -87c-169 6 -321 164 -321 423c0 219 152 418 321 424v-73c-82 -32 -165 -197 -165 -351c0 -166 83 -318 165 -350v-73z" />
    <glyph glyph-name="parenright" unicode=")" horiz-adv-x="415" 
d="M374 336c0 -250 -145 -413 -321 -423v73c106 36 165 165 165 350c0 154 -73 319 -165 351v73c171 0 321 -179 321 -424z" />
    <glyph glyph-name="asterisk" unicode="*" horiz-adv-x="538" 
d="M496 415h-130l110 -110l-60 -60l-148 148l-148 -148l-60 60l110 110h-130v83h123l-103 103l60 60l148 -148l148 148l60 -60l-103 -103h123v-83z" />
    <glyph glyph-name="plus" unicode="+" horiz-adv-x="580" 
d="M525 284h-180v-174h-110v174h-180v106h180v174h110v-174h180v-106z" />
    <glyph glyph-name="comma" unicode="," horiz-adv-x="285" 
d="M227 0c0 -118 -81 -164 -166 -164v62c60 0 90 17 90 102h-90v166h166v-166z" />
    <glyph glyph-name="hyphen" unicode="-" horiz-adv-x="581" 
d="M529 274h-479v116h479v-116z" />
    <glyph glyph-name="hyphen" unicode="&#xad;" horiz-adv-x="581" 
d="M529 274h-479v116h479v-116z" />
    <glyph glyph-name="period" unicode="." horiz-adv-x="285" 
d="M224 0h-159v159h159v-159z" />
    <glyph glyph-name="slash" unicode="/" horiz-adv-x="463" 
d="M492 737l-404 -820h-110l404 820h110z" />
    <glyph glyph-name="zero" unicode="0" horiz-adv-x="580" 
d="M546 336c0 -234 -94 -348 -256 -348s-257 114 -257 348v60c0 225 86 352 257 352s256 -127 256 -352v-60zM382 356v20c0 196 -13 260 -92 260s-92 -64 -92 -260v-20c0 -200 17 -256 92 -256c77 0 92 56 92 256z" />
    <glyph glyph-name="one" unicode="1" horiz-adv-x="368" 
d="M289 0h-151v561h-103v89c92 8 139 63 155 87h99v-737z" />
    <glyph glyph-name="two" unicode="2" horiz-adv-x="580" 
d="M542 0h-502v124c256 210 332 324 332 410c0 60 -30 101 -101 101c-68 0 -92 -34 -94 -69h-142c10 125 118 181 252 181c176 0 249 -92 249 -211c0 -155 -120 -288 -359 -426h365v-110z" />
    <glyph glyph-name="three" unicode="3" horiz-adv-x="580" 
d="M540 218c0 -137 -110 -230 -263 -230c-135 0 -218 55 -264 134l103 63c30 -52 79 -85 148 -85c76 0 120 38 120 128c0 71 -52 107 -121 107h-73v104h77c68 0 108 34 108 100c0 73 -44 97 -96 97c-66 0 -85 -27 -94 -55h-132c12 105 107 167 241 167
c155 0 233 -86 233 -184c0 -94 -52 -149 -118 -168c71 -14 131 -81 131 -178z" />
    <glyph glyph-name="four" unicode="4" horiz-adv-x="580" 
d="M561 226h-82v-226h-150v226h-300l-8 142l358 369h100v-404h82v-107zM331 333v212l-201 -212h201z" />
    <glyph glyph-name="five" unicode="5" horiz-adv-x="580" 
d="M542 266c0 -194 -119 -279 -265 -279c-134 0 -214 54 -267 133l114 78c23 -46 66 -92 132 -92c71 0 118 40 118 145c0 99 -37 149 -115 149c-38 0 -82 -21 -106 -55l-99 59l12 333h447v-123h-332l-8 -156c27 35 91 65 155 65c126 0 214 -93 214 -257z" />
    <glyph glyph-name="six" unicode="6" horiz-adv-x="580" 
d="M554 264c0 -169 -101 -275 -254 -275c-166 0 -273 85 -273 348c0 308 118 409 279 409c77 0 141 -14 170 -27v-126c-41 20 -108 33 -155 33c-90 0 -134 -56 -134 -184c16 46 81 77 149 77c130 0 218 -83 218 -255zM388 248c0 95 -24 149 -99 149
c-72 0 -104 -45 -104 -152s34 -151 103 -151c67 0 100 43 100 154z" />
    <glyph glyph-name="seven" unicode="7" horiz-adv-x="580" 
d="M542 612c-145 -106 -254 -287 -240 -612h-174c0 226 87 491 283 627h-380v110h511v-125z" />
    <glyph glyph-name="eight" unicode="8" horiz-adv-x="596" 
d="M561 201c0 -134 -97 -213 -263 -213c-161 0 -263 76 -263 213c0 83 47 163 140 189v7c-62 14 -111 72 -111 156c0 112 85 193 239 193c148 0 229 -78 229 -193c0 -77 -51 -144 -111 -159v-7c79 -14 140 -88 140 -186zM386 540c0 67 -33 101 -86 101s-85 -34 -85 -101
c0 -70 35 -99 85 -99c44 0 86 27 86 99zM401 215c0 77 -33 122 -103 122c-68 0 -103 -44 -103 -122c0 -80 46 -115 103 -115s103 35 103 115z" />
    <glyph glyph-name="nine" unicode="9" horiz-adv-x="580" 
d="M16 472c0 158 98 276 264 276c186 0 279 -103 279 -349c0 -276 -110 -409 -309 -409c-62 0 -114 7 -146 17v119c43 -10 97 -18 136 -18c92 0 152 41 155 175c-24 -38 -91 -65 -155 -65c-133 0 -224 93 -224 254zM175 483c0 -106 39 -152 110 -152c65 0 113 47 113 152
c0 107 -44 151 -113 151c-67 0 -110 -40 -110 -151z" />
    <glyph glyph-name="colon" unicode=":" horiz-adv-x="249" 
d="M207 402h-159v159h159v-159zM207 0h-159v159h159v-159z" />
    <glyph glyph-name="semicolon" unicode=";" horiz-adv-x="249" 
d="M207 402h-159v159h159v-159zM207 13c0 -117 -60 -177 -159 -177v62c53 0 85 10 85 102h-85v159h159v-146z" />
    <glyph glyph-name="less" unicode="&#x3c;" 
d="M452 46l-415 196v99l415 196v-121l-260 -126l260 -123v-121z" />
    <glyph glyph-name="equal" unicode="=" horiz-adv-x="580" 
d="M520 349h-459v116h459v-116zM520 115h-459v116h459v-116z" />
    <glyph glyph-name="greater" unicode="&#x3e;" 
d="M48 46v121l260 123l-260 126v121l415 -196v-99z" />
    <glyph glyph-name="question" unicode="?" horiz-adv-x="465" 
d="M447 592c0 -73 -38 -125 -92 -161c-55 -37 -90 -74 -90 -135v-69h-133v91c0 65 28 115 79 151c50 35 78 59 78 106c0 37 -29 67 -102 67c-67 0 -139 -41 -174 -71v109c39 33 120 70 214 70c156 0 220 -72 220 -158zM276 0h-153v157h153v-157z" />
    <glyph glyph-name="at" unicode="@" horiz-adv-x="913" 
d="M869 336c0 -126 -71 -253 -179 -253c-79 0 -110 29 -128 94c-14 -63 -51 -95 -130 -95c-87 0 -152 60 -152 205c0 126 66 214 180 214c43 0 77 -19 91 -48v45h92v-257c0 -49 13 -69 42 -69c55 0 91 30 91 154c0 213 -121 338 -304 338c-167 0 -307 -157 -307 -374
c0 -234 127 -369 309 -369c56 0 134 13 180 37v-86c-42 -22 -100 -40 -180 -40c-251 0 -411 181 -411 458c0 268 176 462 410 462c235 0 396 -149 396 -416zM551 285v40c0 59 -30 96 -91 96c-54 0 -84 -43 -84 -137c0 -54 18 -116 78 -116c67 0 97 52 97 117z" />
    <glyph glyph-name="A" unicode="A" horiz-adv-x="663" 
d="M660 0h-170l-54 177h-243l-56 -177h-135l248 737h155zM401 283l-91 271l-85 -271h176z" />
    <glyph glyph-name="B" unicode="B" horiz-adv-x="626" 
d="M583 234c0 -150 -99 -234 -263 -234h-248v737h253c151 0 206 -56 206 -149c0 -82 -38 -131 -118 -145c98 -14 170 -87 170 -209zM375 548c0 57 -31 83 -94 83h-57v-163h58c67 0 93 29 93 80zM419 242c0 79 -40 128 -139 128h-56v-264h65c94 0 130 48 130 136z" />
    <glyph glyph-name="C" unicode="C" horiz-adv-x="577" 
d="M537 20c-22 -14 -88 -32 -166 -32c-197 0 -337 123 -337 362v30c0 222 143 367 335 367c81 0 137 -10 168 -26v-120c-28 14 -77 29 -141 29c-121 0 -191 -97 -191 -260v-10c0 -177 67 -258 176 -258c74 0 126 18 156 32v-114z" />
    <glyph glyph-name="D" unicode="D" horiz-adv-x="657" 
d="M623 353c0 -238 -95 -353 -281 -353h-270v737h242c221 0 309 -135 309 -354v-30zM456 358v20c0 162 -60 249 -156 249h-62v-517h76c96 0 142 57 142 248z" />
    <glyph glyph-name="E" unicode="E" horiz-adv-x="570" 
d="M540 0h-468v737h448v-110h-282v-198h219v-111h-219v-208h302v-110z" />
    <glyph glyph-name="F" unicode="F" horiz-adv-x="542" 
d="M520 627h-282v-198h219v-111h-219v-318h-166v737h448v-110z" />
    <glyph glyph-name="G" unicode="G" horiz-adv-x="657" 
d="M615 86c-33 -43 -128 -98 -270 -98c-195 0 -311 127 -311 362v40c0 211 129 357 348 357c83 0 141 -20 167 -34v-119c-33 16 -85 39 -152 39c-118 0 -197 -75 -197 -263v-10c0 -194 59 -260 158 -260c54 0 98 15 118 31v166h-113v98h252v-309z" />
    <glyph glyph-name="H" unicode="H" horiz-adv-x="701" 
d="M629 0h-166v317h-225v-317h-166v737h166v-307h225v307h166v-737z" />
    <glyph glyph-name="I" unicode="I" horiz-adv-x="366" 
d="M266 0h-166v737h166v-737z" />
    <glyph glyph-name="J" unicode="J" horiz-adv-x="466" 
d="M388 171c0 -101 -67 -178 -200 -178c-78 0 -124 11 -154 29v113c26 -10 72 -22 114 -22c41 0 74 21 74 72v552h166v-566z" />
    <glyph glyph-name="K" unicode="K" horiz-adv-x="654" 
d="M673 0h-195l-216 271l-24 -31v-240h-166v737h166v-310l230 310h165l-279 -345z" />
    <glyph glyph-name="L" unicode="L" horiz-adv-x="550" 
d="M511 0h-439v737h166v-627h273v-110z" />
    <glyph glyph-name="M" unicode="M" horiz-adv-x="918" 
d="M852 0h-157v415l-221 -415h-86l-211 411v-411h-115v737h123l275 -531l278 531h114v-737z" />
    <glyph glyph-name="N" unicode="N" horiz-adv-x="682" 
d="M620 0h-71l-369 463v-463h-118v737h89l351 -436v436h118v-737z" />
    <glyph glyph-name="O" unicode="O" horiz-adv-x="672" 
d="M638 345c0 -233 -122 -357 -303 -357c-177 0 -301 124 -301 355v42c0 213 105 362 306 362c198 0 298 -154 298 -362v-40zM471 355v20c0 181 -24 260 -136 260c-98 0 -134 -55 -134 -260v-18c0 -200 23 -262 134 -262c92 0 136 71 136 260z" />
    <glyph glyph-name="P" unicode="P" horiz-adv-x="581" 
d="M560 488c0 -125 -77 -189 -222 -189h-100v-299h-166v737h276c158 0 212 -89 212 -191v-58zM390 477v71c0 57 -31 82 -100 82h-52v-230h60c51 0 92 26 92 77z" />
    <glyph glyph-name="Q" unicode="Q" horiz-adv-x="672" 
d="M638 345c0 -198 -95 -330 -231 -344c4 -57 22 -82 91 -82h87v-86h-146c-116 0 -177 80 -181 168c-166 51 -224 176 -224 344v40c0 220 118 362 302 362c194 0 302 -136 302 -362v-40zM471 355v20c0 210 -31 268 -135 268s-135 -54 -135 -268v-20c0 -195 19 -263 135 -263
c93 0 135 73 135 263z" />
    <glyph glyph-name="R" unicode="R" horiz-adv-x="611" 
d="M576 0h-164c-2 238 -43 331 -135 331h-39v-331h-166v737h290c140 0 194 -69 194 -159v-40c0 -85 -53 -136 -154 -146c116 -34 174 -141 174 -392zM393 523v20c0 65 -36 89 -101 89h-54v-195h45c79 0 110 29 110 86z" />
    <glyph glyph-name="S" unicode="S" horiz-adv-x="564" 
d="M533 219c0 -156 -109 -229 -295 -229c-107 0 -168 15 -215 33v124c37 -22 116 -46 195 -46c108 0 150 33 150 86c0 50 -15 79 -145 133c-117 46 -182 106 -182 225c0 114 103 202 273 202c81 0 155 -18 181 -28v-112c-57 14 -111 26 -172 26c-88 0 -125 -30 -125 -72
c0 -53 12 -67 151 -118c132 -48 184 -122 184 -224z" />
    <glyph glyph-name="T" unicode="T" 
d="M495 627h-162v-627h-166v627h-162v110h490v-110z" />
    <glyph glyph-name="U" unicode="U" horiz-adv-x="656" 
d="M598 213c0 -137 -83 -222 -262 -222c-192 0 -270 86 -270 250v496h166v-516c0 -80 31 -120 121 -120c82 0 122 31 122 123v513h123v-524z" />
    <glyph glyph-name="V" unicode="V" horiz-adv-x="609" 
d="M620 737l-250 -737h-139l-242 737h179l158 -509l158 509h136z" />
    <glyph glyph-name="W" unicode="W" horiz-adv-x="943" 
d="M951 737l-204 -737h-120l-155 480l-158 -480h-120l-204 737h168l128 -467l146 467h118l147 -467l120 467h134z" />
    <glyph glyph-name="X" unicode="X" horiz-adv-x="611" 
d="M616 0h-188l-140 253l-153 -253h-139l227 368l-203 369h188l126 -227l137 227h139l-212 -342z" />
    <glyph glyph-name="Y" unicode="Y" horiz-adv-x="648" 
d="M655 737l-245 -425v-312h-166v296l-249 441h194l162 -296l172 296h132z" />
    <glyph glyph-name="Z" unicode="Z" horiz-adv-x="541" 
d="M526 0h-508v100l324 527h-310v110h494v-98l-325 -529h325v-110z" />
    <glyph glyph-name="bracketleft" unicode="[" horiz-adv-x="395" 
d="M345 -109h-282v846h282v-90h-136v-659h136v-97z" />
    <glyph glyph-name="backslash" unicode="\" horiz-adv-x="463" 
d="M492 -83h-110l-404 820h110z" />
    <glyph glyph-name="bracketright" unicode="]" horiz-adv-x="395" 
d="M335 -109h-282v97h136v659h-136v90h282v-846z" />
    <glyph glyph-name="asciicircum" unicode="^" horiz-adv-x="550" 
d="M550 321h-154l-126 227l-116 -227h-154l216 416h119z" />
    <glyph glyph-name="underscore" unicode="_" horiz-adv-x="498" 
d="M498 -176h-498v103h498v-103z" />
    <glyph glyph-name="grave" unicode="`" 
d="M376 596h-106l-160 173h144z" />
    <glyph glyph-name="a" unicode="a" horiz-adv-x="604" 
d="M538 0h-146l-3 73c-24 -47 -85 -80 -160 -80c-124 0 -188 63 -188 189v10c0 127 92 196 235 196c44 0 91 -15 111 -33v55c0 39 -38 69 -101 69c-68 0 -124 -18 -162 -40v96c49 22 110 38 201 38c146 0 213 -62 213 -206v-367zM388 188v15c0 67 -30 104 -95 104
c-58 0 -95 -31 -95 -105v-15c0 -76 40 -95 96 -95c51 0 94 31 94 96z" />
    <glyph glyph-name="b" unicode="b" horiz-adv-x="634" 
d="M586 257c0 -161 -82 -265 -235 -265c-38 0 -93 12 -125 40l-2 -32h-151v737h156v-245c35 63 103 81 163 81c117 0 194 -88 194 -252v-64zM425 273v41c0 122 -39 152 -95 152c-54 0 -89 -28 -101 -66v-268c6 -25 42 -54 95 -54c57 0 101 35 101 195z" />
    <glyph glyph-name="c" unicode="c" horiz-adv-x="549" 
d="M498 30c-12 -10 -86 -42 -151 -42c-181 0 -297 93 -297 282v24c0 170 113 282 293 282c70 0 133 -21 155 -43v-105c-28 26 -76 45 -132 45c-94 0 -147 -65 -147 -183v-10c0 -136 41 -191 130 -191c63 0 127 24 149 42v-101z" />
    <glyph glyph-name="d" unicode="d" horiz-adv-x="634" 
d="M563 0h-150l-4 72c-38 -63 -94 -78 -156 -78c-112 0 -203 63 -203 247v59c0 167 80 269 237 269c39 0 89 -9 120 -40v208h156v-737zM407 154v271c-14 27 -44 47 -89 47c-80 0 -107 -47 -107 -184v-37c0 -118 31 -158 94 -158c44 0 84 27 102 61z" />
    <glyph glyph-name="e" unicode="e" horiz-adv-x="636" 
d="M589 248h-382c0 -126 63 -164 153 -164c59 0 122 16 189 46v-94c-47 -27 -120 -48 -215 -48c-174 0 -284 93 -284 271v40c0 153 96 277 275 277c169 0 264 -110 264 -273v-55zM438 334c-4 110 -45 144 -113 144c-57 0 -113 -31 -117 -144h230z" />
    <glyph glyph-name="f" unicode="f" horiz-adv-x="342" 
d="M405 710l-41 -83c-19 13 -35 24 -67 24c-47 0 -58 -28 -58 -79v-21h106v-86h-106v-465h-156v466h-74v85h77v16c0 112 68 180 180 180c52 0 105 -15 139 -37z" />
    <glyph glyph-name="g" unicode="g" horiz-adv-x="634" 
d="M577 77c0 -160 -109 -257 -291 -257c-54 0 -133 10 -187 36v108c57 -26 124 -34 169 -34c125 0 161 45 161 116v55c-18 -38 -70 -94 -177 -94c-122 0 -202 76 -202 270v16c0 188 91 276 239 276c58 0 114 -18 142 -56v49h146v-485zM421 288v35c0 110 -30 153 -101 153
c-68 0 -109 -49 -109 -173v-15c0 -141 34 -180 105 -180c67 0 105 48 105 180z" />
    <glyph glyph-name="h" unicode="h" horiz-adv-x="633" 
d="M561 0h-156v394c0 33 -29 60 -74 60s-76 -20 -102 -50v-404h-156v737h154v-261c26 57 95 97 185 97c92 0 149 -55 149 -179v-394z" />
    <glyph glyph-name="i" unicode="i" horiz-adv-x="298" 
d="M229 606h-159v132h159v-132zM227 0h-156v562h156v-562z" />
    <glyph glyph-name="j" unicode="j" horiz-adv-x="309" 
d="M241 606h-159v132h159v-132zM240 37c0 -135 -74 -211 -183 -211c-45 0 -101 6 -140 16v106c22 -6 55 -12 91 -12c49 0 76 21 76 80v546h156v-525z" />
    <glyph glyph-name="k" unicode="k" horiz-adv-x="581" 
d="M590 0h-182l-171 219l-8 -8v-211h-156v737h156v-401l188 226h144l-213 -250z" />
    <glyph glyph-name="l" unicode="l" horiz-adv-x="310" 
d="M233 0h-156v737h156v-737z" />
    <glyph glyph-name="m" unicode="m" horiz-adv-x="954" 
d="M893 0h-156v394c0 29 -25 60 -72 60c-49 0 -78 -21 -104 -51v-403h-156v394c0 32 -27 60 -71 60c-50 0 -83 -24 -105 -50v-404h-156v562h150l3 -89c28 60 95 100 182 100c78 0 121 -37 142 -100c38 71 104 98 183 100c95 4 160 -73 160 -176v-397z" />
    <glyph glyph-name="n" unicode="n" horiz-adv-x="633" 
d="M561 0h-156v394c0 30 -27 60 -73 60c-44 0 -79 -22 -103 -50v-404h-156v562h150l3 -90c22 53 90 101 184 101c93 0 151 -56 151 -179v-394z" />
    <glyph glyph-name="o" unicode="o" horiz-adv-x="664" 
d="M614 264c0 -175 -108 -276 -281 -276c-174 0 -283 108 -283 276v36c0 165 109 276 282 276c177 0 282 -113 282 -276v-36zM453 278v8c0 138 -34 190 -121 190c-85 0 -120 -51 -120 -190v-8c0 -143 35 -193 120 -193c79 0 121 44 121 193z" />
    <glyph glyph-name="p" unicode="p" horiz-adv-x="634" 
d="M586 260c0 -173 -88 -267 -235 -267c-38 0 -90 9 -122 37v-197h-156v729h150l4 -76c27 56 94 87 169 87c102 0 190 -68 190 -248v-65zM425 268v37c0 122 -36 159 -92 159c-52 0 -87 -22 -104 -61v-272c6 -26 43 -53 95 -53c64 0 101 48 101 190z" />
    <glyph glyph-name="q" unicode="q" horiz-adv-x="634" 
d="M563 -167h-156v241c-18 -35 -73 -82 -151 -82c-129 0 -206 100 -206 255v74c0 141 87 248 236 248c63 0 111 -22 133 -56l32 49h112v-729zM407 153v282c-24 34 -58 44 -88 44c-68 0 -108 -50 -108 -185v-36c0 -122 28 -166 94 -166c46 0 80 23 102 61z" />
    <glyph glyph-name="r" unicode="r" horiz-adv-x="498" 
d="M494 391h-144c0 33 -12 58 -49 58c-38 0 -64 -25 -72 -47v-402h-156v562h150l3 -89c30 65 78 100 139 100c94 0 145 -64 129 -182z" />
    <glyph glyph-name="s" unicode="s" horiz-adv-x="455" 
d="M443 175c0 -104 -83 -183 -209 -183c-99 0 -171 15 -202 31v99c30 -18 93 -40 164 -40c72 0 108 28 108 68c0 38 -17 52 -127 86c-102 30 -138 85 -138 173c0 90 70 166 212 166c66 0 109 -11 149 -29v-95c-30 18 -90 30 -140 30c-57 0 -96 -20 -96 -55
c0 -38 30 -49 112 -73c121 -36 167 -87 167 -178z" />
    <glyph glyph-name="t" unicode="t" horiz-adv-x="415" 
d="M380 465h-148v-288c0 -60 15 -85 71 -85c25 0 50 5 73 11v-88c-35 -14 -88 -20 -133 -20c-102 0 -167 68 -167 192v279h-67v80l73 4l52 187h98v-186h148v-86z" />
    <glyph glyph-name="u" unicode="u" horiz-adv-x="633" 
d="M561 0h-150l-3 83c-33 -57 -92 -94 -185 -94c-89 0 -150 47 -150 180v393h156v-385c0 -57 27 -74 68 -74c42 0 80 17 108 51v408h156v-562z" />
    <glyph glyph-name="v" unicode="v" horiz-adv-x="581" 
d="M580 562l-230 -562h-124l-229 562h159l145 -381l145 381h134z" />
    <glyph glyph-name="w" unicode="w" horiz-adv-x="871" 
d="M430 296l-104 -296h-116l-209 562h156l125 -342l115 342h102l113 -342l120 342h138l-219 -562h-116z" />
    <glyph glyph-name="x" unicode="x" horiz-adv-x="594" 
d="M592 0h-181l-123 179c1 0 -130 -179 -130 -179h-157l212 288c0 1 -188 274 -188 274h181s100 -146 100 -147l108 147h154s-186 -256 -187 -256c0 1 211 -306 211 -306z" />
    <glyph glyph-name="y" unicode="y" horiz-adv-x="581" 
d="M580 562l-324 -729h-136l89 202l-213 527h159l139 -362l152 362h134z" />
    <glyph glyph-name="z" unicode="z" horiz-adv-x="498" 
d="M488 0h-468v104l287 358h-282v100h450v-104l-296 -358h309v-100z" />
    <glyph glyph-name="braceleft" unicode="{" horiz-adv-x="395" 
d="M360 -168h-100c-82 0 -134 54 -134 126v224c0 40 -18 57 -86 57v118c68 0 87 8 87 46v208c0 72 57 126 133 126h100v-94h-52c-32 0 -32 -32 -32 -58v-152c0 -82 -17 -121 -88 -134c69 -5 88 -37 88 -122v-204c0 -22 1 -47 32 -47h52v-94z" />
    <glyph glyph-name="bar" unicode="|" horiz-adv-x="415" 
d="M271 -200h-126v938h126v-938z" />
    <glyph glyph-name="braceright" unicode="}" horiz-adv-x="395" 
d="M35 -168v94h52c31 0 32 25 32 47v204c0 85 19 117 88 122c-71 13 -88 52 -88 134v152c0 26 0 58 -32 58h-52v94h100c76 0 133 -54 133 -126v-208c0 -38 19 -46 87 -46v-118c-68 0 -86 -17 -86 -57v-224c0 -72 -52 -126 -134 -126h-100z" />
    <glyph glyph-name="asciitilde" unicode="~" horiz-adv-x="636" 
d="M622 357c0 -75 -53 -139 -156 -139c-56 0 -110 29 -158 65c-45 35 -98 76 -134 76c-39 0 -55 -29 -55 -56c0 -33 11 -58 33 -84h-93c-24 24 -40 57 -40 99c0 81 53 149 155 149c62 0 120 -33 168 -71c42 -33 79 -70 118 -70c43 0 61 27 61 56c0 31 -10 55 -33 84h93
c25 -27 41 -51 41 -109z" />
    <glyph glyph-name="exclamdown" unicode="&#xa1;" horiz-adv-x="346" 
d="M255 581h-156v156h156v-156zM266 0h-178l19 486h140z" />
    <glyph glyph-name="cent" unicode="&#xa2;" horiz-adv-x="581" 
d="M507 21c-6 -8 -46 -18 -92 -20v-71h-95v71c-155 15 -251 115 -251 300v24c0 169 107 255 251 275v78h95v-79c42 -4 73 -13 91 -21v-105c-27 12 -66 25 -121 25c-95 0 -154 -63 -154 -180v-10c0 -122 43 -196 137 -196c63 0 112 8 139 16v-107z" />
    <glyph glyph-name="sterling" unicode="&#xa3;" horiz-adv-x="581" 
d="M551 0h-468v308h-72v98h72v92c0 143 119 249 270 249c82 0 113 -8 171 -24v-111c-57 18 -94 23 -145 23c-92 0 -130 -40 -130 -150v-79h142v-98h-142v-198h302v-110z" />
    <glyph glyph-name="currency" unicode="&#xa4;" horiz-adv-x="580" 
d="M521 20c-22 -14 -68 -32 -146 -32c-157 0 -252 78 -285 231h-79v87h69c-3 19 -2 72 -2 88h-67v87h75c27 164 126 266 287 266c81 0 117 -10 148 -26v-124c-28 14 -63 29 -121 29c-90 0 -136 -49 -153 -145h273v-87h-282c-1 -22 -1 -68 1 -88h281v-87h-269
c19 -80 60 -124 134 -124s106 18 136 32v-107z" />
    <glyph glyph-name="yen" unicode="&#xa5;" horiz-adv-x="644" 
d="M648 737l-255 -383v-40h157v-84h-157v-48h157v-84h-157v-98h-146v98h-157v84h157v48h-157v84h157v23l-249 400h184l164 -264l170 264h132z" />
    <glyph glyph-name="brokenbar" unicode="&#xa6;" horiz-adv-x="415" 
d="M272 367h-126v432h126v-432zM272 -199h-126v430h126v-430z" />
    <glyph glyph-name="section" unicode="&#xa7;" horiz-adv-x="443" 
d="M361 251c25 -18 50 -49 50 -105c0 -97 -90 -158 -216 -158c-66 0 -138 21 -167 33v113c38 -18 98 -41 148 -41c63 0 93 24 93 53c0 25 -13 44 -98 82c-73 33 -133 68 -133 151c0 39 22 82 50 107c-34 20 -52 56 -52 103c0 87 67 158 192 158c70 0 129 -19 156 -33v-120
c-43 28 -99 50 -155 50c-44 0 -65 -15 -65 -43c0 -43 53 -57 103 -78c109 -43 150 -97 150 -151c0 -52 -22 -94 -56 -121zM182 439c-15 -10 -27 -33 -27 -48c0 -23 9 -40 28 -50c19 -11 47 -25 86 -43c15 10 27 33 27 48c0 23 -10 39 -28 50c-19 11 -47 25 -86 43z" />
    <glyph glyph-name="dieresis" unicode="&#xa8;" 
d="M431 672c0 -39 -30 -68 -67 -68c-35 0 -66 29 -66 68c0 36 30 67 66 67c38 0 67 -31 67 -67zM207 672c0 -39 -30 -68 -67 -68c-36 0 -66 30 -66 68c0 35 29 67 66 67c39 0 67 -32 67 -67z" />
    <glyph glyph-name="copyright" unicode="&#xa9;" horiz-adv-x="744" 
d="M696 337c0 -196 -129 -324 -324 -324c-198 0 -324 126 -324 324c0 196 126 326 324 326c195 0 324 -133 324 -326zM619 337c0 145 -101 256 -247 256c-151 0 -246 -104 -246 -256c0 -164 88 -256 246 -256c159 0 247 101 247 256zM493 185c-20 -12 -61 -25 -104 -25
c-108 0 -172 45 -172 161v17c0 103 73 163 174 163c51 0 83 -14 102 -24v-62c-18 14 -56 26 -87 26c-59 0 -87 -29 -87 -108v-7c0 -82 24 -100 82 -100c39 0 74 13 92 25v-66z" />
    <glyph glyph-name="ordfeminine" unicode="&#xaa;" horiz-adv-x="473" 
d="M430 283h-128l-1 49c-20 -34 -60 -55 -121 -55c-102 0 -153 51 -153 153v8c0 103 74 165 191 165c36 0 62 -13 80 -27v39c0 30 -17 47 -72 47c-56 0 -100 -17 -132 -35v90c41 16 88 30 163 30c117 0 173 -43 173 -160v-304zM429 133h-393v93h393v-93zM301 437v9
c0 49 -23 77 -70 77c-43 0 -68 -24 -68 -77v-10c0 -58 27 -70 69 -70c36 0 69 21 69 71z" />
    <glyph glyph-name="guillemotleft" unicode="&#xab;" horiz-adv-x="664" 
d="M631 60l-302 182v104l302 186v-134l-169 -104l169 -100v-134zM329 60l-302 182v104l302 186v-134l-169 -104l169 -100v-134z" />
    <glyph glyph-name="logicalnot" unicode="&#xac;" horiz-adv-x="583" 
d="M521 175h-107v108h-362v106h469v-214z" />
    <glyph glyph-name="registered" unicode="&#xae;" horiz-adv-x="744" 
d="M696 337c0 -196 -129 -324 -324 -324c-198 0 -324 126 -324 324c0 194 128 326 324 326c195 0 324 -133 324 -326zM619 337c0 145 -101 256 -247 256c-147 0 -246 -108 -246 -256c0 -164 88 -256 246 -256c159 0 247 101 247 256zM506 167h-90v62c0 52 -21 90 -52 90h-24
v-152h-86v347h135c74 0 109 -31 109 -75v-30c0 -38 -23 -64 -55 -70c48 -26 63 -75 63 -115v-57zM419 406v13c0 28 -12 39 -34 39h-45v-93h45c23 0 34 12 34 41z" />
    <glyph glyph-name="macron" unicode="&#xaf;" 
d="M425 652h-351v89h351v-89z" />
    <glyph glyph-name="macron" unicode="&#x2c9;" 
d="M425 652h-351v89h351v-89z" />
    <glyph glyph-name="degree" unicode="&#xb0;" horiz-adv-x="402" 
d="M387 568c0 -98 -82 -180 -180 -180s-180 82 -180 180s82 180 180 180s180 -82 180 -180zM285 568c0 44 -34 78 -78 78s-78 -34 -78 -78s34 -78 78 -78s78 34 78 78z" />
    <glyph glyph-name="plusminus" unicode="&#xb1;" 
d="M447 316h-141v-133h-110v133h-140v115h140v133h110v-133h141v-115zM452 0h-396v106h396v-106z" />
    <glyph glyph-name="twosuperior" unicode="&#xb2;" horiz-adv-x="448" 
d="M395 288h-325v88c155 131 210 177 210 233c0 37 -19 52 -56 52c-43 0 -58 -23 -64 -42h-101c14 79 89 127 172 127c113 0 161 -51 161 -126c0 -94 -165 -221 -213 -249h216v-83z" />
    <glyph glyph-name="threesuperior" unicode="&#xb3;" horiz-adv-x="448" 
d="M394 418c0 -81 -63 -140 -168 -140c-65 0 -126 25 -165 80l68 46c28 -36 60 -50 82 -50c53 0 76 22 76 69c0 49 -40 60 -79 60h-46v70h49c51 0 74 20 74 59c0 34 -24 54 -60 54c-45 0 -59 -20 -67 -47h-97c16 81 87 127 168 127c100 0 153 -48 153 -118
c0 -62 -30 -89 -59 -103c50 -20 71 -57 71 -107z" />
    <glyph glyph-name="acute" unicode="&#xb4;" 
d="M386 769l-160 -173h-106l122 173h144z" />
    <glyph glyph-name="mu" unicode="&#xb5;" horiz-adv-x="633" 
d="M561 0h-148l-8 82c-24 -54 -72 -82 -133 -82c-22 0 -47 1 -56 4v-171h-143v729h156v-371c0 -73 33 -81 66 -81c46 0 92 18 110 54v398h156v-562z" />
    <glyph glyph-name="mu" unicode="&#x3bc;" horiz-adv-x="633" 
d="M561 0h-148l-8 82c-24 -54 -72 -82 -133 -82c-22 0 -47 1 -56 4v-171h-143v729h156v-371c0 -73 33 -81 66 -81c46 0 92 18 110 54v398h156v-562z" />
    <glyph glyph-name="paragraph" unicode="&#xb6;" horiz-adv-x="582" 
d="M523 0h-96v627h-49v-627h-105v301c-151 0 -247 63 -247 204v25c0 123 96 207 259 207h238v-737zM270 416v209c-70 0 -119 -38 -119 -102c0 -66 35 -107 119 -107z" />
    <glyph glyph-name="periodcentered" unicode="&#xb7;" horiz-adv-x="332" 
d="M246 256h-159v159h159v-159z" />
    <glyph glyph-name="periodcentered" unicode="&#x2219;" horiz-adv-x="332" 
d="M246 256h-159v159h159v-159z" />
    <glyph glyph-name="cedilla" unicode="&#xb8;" 
d="M394 -125c0 -74 -66 -115 -132 -115c-49 0 -52 3 -72 11v65c18 -10 35 -13 59 -13c26 0 48 17 48 45c0 36 -20 49 -50 49h-46v95h79v-40c70 0 114 -35 114 -97z" />
    <glyph glyph-name="onesuperior" unicode="&#xb9;" horiz-adv-x="370" 
d="M253 288h-111v323h-79v63c81 8 107 47 111 64h79v-450z" />
    <glyph glyph-name="ordmasculine" unicode="&#xba;" horiz-adv-x="538" 
d="M501 495c0 -139 -84 -223 -227 -223c-141 0 -230 86 -230 223v30c0 134 87 223 229 223c143 0 228 -92 228 -223v-30zM481 133h-427v93h427v-93zM361 507v6c0 111 -37 143 -88 143s-87 -37 -87 -143v-6c0 -115 34 -143 87 -143c49 0 88 27 88 143z" />
    <glyph glyph-name="guillemotright" unicode="&#xbb;" horiz-adv-x="664" 
d="M335 60v134l169 100l-169 104v134l302 -186v-104zM33 60v134l169 100l-169 104v134l302 -186v-104z" />
    <glyph glyph-name="onequarter" unicode="&#xbc;" horiz-adv-x="804" 
d="M220 288h-111v323h-79v63c80 8 107 46 111 64h79v-450zM662 737l-462 -737h-106l462 737h106zM794 122h-76v-122h-106v122h-219v91l252 250h73v-248h76v-93zM612 215v116l-118 -116h118z" />
    <glyph glyph-name="onehalf" unicode="&#xbd;" horiz-adv-x="804" 
d="M220 288h-111v323h-79v63c80 8 107 46 111 64h79v-450zM641 737l-461 -737h-106l461 737h106zM796 0h-325v87c151 131 210 177 210 233c0 37 -19 53 -56 53c-43 0 -58 -23 -64 -42h-101c14 79 89 127 172 127c111 0 161 -53 161 -126c0 -96 -129 -189 -213 -249h216v-83z
" />
    <glyph glyph-name="threequarters" unicode="&#xbe;" horiz-adv-x="861" 
d="M341 418c0 -81 -63 -140 -168 -140c-64 0 -125 24 -165 80l68 46c28 -36 60 -50 82 -50c53 0 76 22 76 69c0 51 -41 60 -79 60h-46v70h49c52 0 74 21 74 59c0 33 -23 54 -60 54c-44 0 -59 -21 -67 -47h-97c16 81 87 127 168 127c100 0 153 -48 153 -118
c0 -61 -31 -89 -58 -103c49 -20 70 -58 70 -107zM715 737l-461 -737h-106l461 737h106zM843 121h-76v-122h-106v122h-219v90l252 250h73v-248h76v-92zM661 213v117l-118 -117h118z" />
    <glyph glyph-name="questiondown" unicode="&#xbf;" horiz-adv-x="448" 
d="M176 738h153v-157h-153v157zM5 146c0 73 38 125 92 161c55 37 90 74 90 135v69h133v-91c0 -65 -28 -115 -79 -151c-50 -35 -78 -59 -78 -106c0 -37 29 -67 102 -67c67 0 139 41 174 71v-109c-39 -33 -120 -70 -214 -70c-156 0 -220 72 -220 158z" />
    <glyph glyph-name="divide" unicode="&#xf7;" horiz-adv-x="580" 
d="M365 506c0 -42 -33 -75 -75 -75c-43 0 -75 34 -75 75s32 75 75 75c42 0 75 -33 75 -75zM526 284h-471v106h471v-106zM365 162c0 -42 -33 -75 -75 -75c-43 0 -75 34 -75 75s32 75 75 75s75 -34 75 -75z" />
    <glyph glyph-name="florin" unicode="&#x192;" horiz-adv-x="462" 
d="M486 713l-49 -102c-14 12 -36 28 -67 28c-36 0 -63 -17 -63 -77v-121h139v-85h-139v-328c0 -120 -75 -201 -183 -201c-74 0 -110 12 -142 34l46 97c16 -14 40 -27 70 -27c38 0 53 30 53 81v344h-73v85h73v105c0 117 90 201 193 201c76 0 112 -14 142 -34z" />
    <glyph glyph-name="circumflex" unicode="&#x2c6;" 
d="M479 598h-106l-123 94l-123 -94h-106l172 173h114z" />
    <glyph glyph-name="caron" unicode="&#x2c7;" 
d="M479 771l-172 -173h-114l-172 173h106l123 -94l123 94h106z" />
    <glyph glyph-name="breve" unicode="&#x2d8;" 
d="M422 769c0 -96 -90 -166 -172 -166c-95 0 -172 71 -172 166h82c6 -50 40 -86 90 -86s84 36 90 86h82z" />
    <glyph glyph-name="dotaccent" unicode="&#x2d9;" 
d="M325 684c0 -42 -33 -75 -75 -75s-75 33 -75 75s33 75 75 75s75 -33 75 -75z" />
    <glyph glyph-name="ring" unicode="&#x2da;" 
d="M385 706c0 -73 -56 -129 -135 -129s-135 56 -135 129s56 129 135 129s135 -56 135 -129zM314 706c0 34 -30 64 -64 64s-64 -30 -64 -64s30 -64 64 -64s64 30 64 64z" />
    <glyph glyph-name="ogonek" unicode="&#x2db;" 
d="M322 -230c-28 -8 -41 -10 -57 -10c-79 0 -129 35 -129 120c0 72 60 120 134 120h42v-73h-42c-29 0 -51 -16 -51 -47c0 -30 21 -47 49 -47c6 0 22 3 32 5z" />
    <glyph glyph-name="tilde" unicode="&#x2dc;" 
d="M461 704c-20 -41 -70 -88 -135 -88c-43 0 -57 12 -87 28s-47 26 -75 26c-27 0 -46 -5 -73 -40l-50 41c18 36 63 87 141 87c35 0 58 -14 80 -28c23 -14 41 -27 80 -27c33 0 49 17 65 46z" />
    <glyph glyph-name="hungarumlaut" unicode="&#x2dd;" 
d="M509 769l-150 -173h-96l122 173h124zM304 769l-150 -173h-96l122 173h124z" />
    <glyph glyph-name="Delta" unicode="&#x394;" horiz-adv-x="664" 
d="M657 0h-658l274 737h104zM435 120l-133 372l-135 -372h268z" />
    <glyph glyph-name="Delta" unicode="&#x2206;" horiz-adv-x="664" 
d="M657 0h-658l274 737h104zM435 120l-133 372l-135 -372h268z" />
    <glyph glyph-name="Omega" unicode="&#x3a9;" horiz-adv-x="748" 
d="M711 406c0 -114 -72 -195 -166 -233v-63h160v-110h-273v221c79 28 107 113 107 204v20c0 150 -57 210 -165 210c-106 0 -165 -58 -165 -210v-20c0 -103 35 -182 107 -204v-221h-273v110h160v63c-79 24 -166 103 -166 242v47c0 155 108 285 341 285
c213 0 333 -114 333 -285v-56z" />
    <glyph glyph-name="Omega" unicode="&#x2126;" horiz-adv-x="748" 
d="M711 406c0 -114 -72 -195 -166 -233v-63h160v-110h-273v221c79 28 107 113 107 204v20c0 150 -57 210 -165 210c-106 0 -165 -58 -165 -210v-20c0 -103 35 -182 107 -204v-221h-273v110h160v63c-79 24 -166 103 -166 242v47c0 155 108 285 341 285
c213 0 333 -114 333 -285v-56z" />
    <glyph glyph-name="pi" unicode="&#x3c0;" horiz-adv-x="665" 
d="M642 465h-74v-465h-156v465h-160v-465h-156v465h-74v97h620v-97z" />
    <glyph glyph-name="uni0401" unicode="&#x401;" horiz-adv-x="570" 
d="M540 0h-468v737h448v-110h-282v-198h219v-111h-219v-208h302v-110zM472 852c0 -39 -30 -68 -67 -68c-35 0 -66 29 -66 68c0 36 30 67 66 67c38 0 67 -31 67 -67zM248 852c0 -39 -30 -68 -67 -68c-36 0 -66 30 -66 68c0 35 29 67 66 67c39 0 67 -32 67 -67z" />
    <glyph glyph-name="uni0402" unicode="&#x402;" horiz-adv-x="764" 
d="M333 334v-334h-166v627h-162v110h490v-110h-162v-188h97c160 0 262 -76 262 -222c0 -150 -99 -217 -263 -217l-31 106c94 0 130 25 130 113c0 79 -40 115 -139 115h-56z" />
    <glyph glyph-name="uni0403" unicode="&#x403;" horiz-adv-x="557" 
d="M470 949l-160 -173h-106l122 173h144zM523 737v-123h-285v-614h-166v737h451z" />
    <glyph glyph-name="uni0404" unicode="&#x404;" horiz-adv-x="577" 
d="M537 20c-22 -14 -88 -32 -166 -32c-200 0 -337 113 -337 362v30c0 232 140 367 335 367c81 0 137 -10 168 -26v-120c-28 14 -77 29 -141 29c-107 0 -177 -66 -189 -206h272v-111h-273c9 -154 76 -211 175 -211c74 0 126 18 156 32v-114z" />
    <glyph glyph-name="uni0405" unicode="&#x405;" horiz-adv-x="564" 
d="M533 219c0 -156 -109 -229 -295 -229c-107 0 -168 15 -215 33v124c37 -22 116 -46 195 -46c108 0 150 33 150 86c0 50 -15 79 -145 133c-117 46 -182 106 -182 225c0 114 103 202 273 202c81 0 155 -18 181 -28v-112c-57 14 -111 26 -172 26c-88 0 -125 -30 -125 -72
c0 -53 12 -67 151 -118c132 -48 184 -122 184 -224z" />
    <glyph glyph-name="uni0406" unicode="&#x406;" horiz-adv-x="366" 
d="M266 0h-166v737h166v-737z" />
    <glyph glyph-name="uni0407" unicode="&#x407;" horiz-adv-x="366" 
d="M266 0h-166v737h166v-737zM364 852c0 -39 -30 -68 -67 -68c-35 0 -66 29 -66 68c0 36 30 67 66 67c38 0 67 -31 67 -67zM140 852c0 -39 -30 -68 -67 -68c-36 0 -66 30 -66 68c0 35 29 67 66 67c39 0 67 -32 67 -67z" />
    <glyph glyph-name="uni0408" unicode="&#x408;" horiz-adv-x="466" 
d="M388 171c0 -101 -67 -178 -200 -178c-78 0 -124 11 -154 29v113c26 -10 72 -22 114 -22c41 0 74 21 74 72v552h166v-566z" />
    <glyph glyph-name="uni0409" unicode="&#x409;" horiz-adv-x="1096" 
d="M694 737v-269h97c160 0 262 -86 262 -232c0 -150 -99 -236 -263 -236h-248v623h-169l-17 -252c-20 -300 -73 -375 -212 -375c-51 0 -95 9 -124 26v142c27 -13 51 -21 81 -21c62 0 90 28 106 234c5 66 18 279 23 360h464zM889 238c0 79 -40 125 -139 125h-56v-257h65
c94 0 130 44 130 132z" />
    <glyph glyph-name="uni040A" unicode="&#x40a;" horiz-adv-x="1017" 
d="M615 737v-269h97c160 0 262 -86 262 -232c0 -150 -99 -236 -263 -236h-248v317h-239v-317h-152v737h152v-307h239v307h152zM810 238c0 79 -40 125 -139 125h-56v-257h65c94 0 130 44 130 132z" />
    <glyph glyph-name="uni040B" unicode="&#x40b;" horiz-adv-x="764" 
d="M333 334v-334h-166v627h-162v110h490v-110h-162v-188h97c160 0 262 -87 262 -233v-206h-164v208c0 79 -40 126 -139 126h-56z" />
    <glyph glyph-name="uni040C" unicode="&#x40c;" horiz-adv-x="663" 
d="M510 949l-160 -173h-106l122 173h144zM393 737h162c0 -276 -49 -326 -152 -345c109 -32 173 -130 173 -392h-164c-1 251 -50 331 -135 331h-39v-331h-166v737h166v-300h34c91 0 121 38 121 300z" />
    <glyph glyph-name="uni040E" unicode="&#x40e;" horiz-adv-x="703" 
d="M61 19v118c34 -15 87 -25 130 -25c42 0 80 10 113 83l-294 542h172l155 -305c12 -24 37 -80 37 -80s20 57 29 77l138 308h158l-240 -542c-66 -148 -122 -202 -240 -202c-69 0 -131 11 -158 26zM538 947c0 -96 -90 -166 -172 -166c-95 0 -172 71 -172 166h82
c6 -50 40 -86 90 -86s84 36 90 86h82z" />
    <glyph glyph-name="uni040F" unicode="&#x40f;" horiz-adv-x="695" 
d="M623 737h-166v-622h-219v622h-166v-737h215v-184h121v184h215v737z" />
    <glyph glyph-name="uni0410" unicode="&#x410;" horiz-adv-x="663" 
d="M660 0h-170l-54 177h-243l-56 -177h-135l248 737h155zM401 283l-91 271l-85 -271h176z" />
    <glyph glyph-name="uni0411" unicode="&#x411;" horiz-adv-x="626" 
d="M515 737v-106h-291v-163h97c160 0 262 -86 262 -232c0 -150 -99 -236 -263 -236h-248v737h443zM419 238c0 79 -40 125 -139 125h-56v-257h65c94 0 130 44 130 132z" />
    <glyph glyph-name="uni0412" unicode="&#x412;" horiz-adv-x="626" 
d="M583 234c0 -150 -99 -234 -263 -234h-248v737h253c151 0 206 -56 206 -149c0 -82 -38 -131 -118 -145c98 -14 170 -87 170 -209zM375 548c0 57 -31 83 -94 83h-57v-163h58c67 0 93 29 93 80zM419 242c0 79 -40 128 -139 128h-56v-264h65c94 0 130 48 130 136z" />
    <glyph glyph-name="uni0413" unicode="&#x413;" horiz-adv-x="557" 
d="M523 737v-123h-285v-614h-166v737h451z" />
    <glyph glyph-name="uni0414" unicode="&#x414;" horiz-adv-x="745" 
d="M138 0v-184h-121v299s-2 0 43 0c61 0 84 76 99 262c5 66 18 279 23 360h478v-622h69v-299h-121v184h-470zM318 371c-8 -121 -21 -202 -42 -256h218v508h-159z" />
    <glyph glyph-name="uni0415" unicode="&#x415;" horiz-adv-x="570" 
d="M540 0h-468v737h448v-110h-282v-198h219v-111h-219v-208h302v-110z" />
    <glyph glyph-name="uni0416" unicode="&#x416;" horiz-adv-x="1012" 
d="M108 737h161c0 -262 30 -300 121 -300h34v300h164v-300h34c91 0 121 38 121 300h161c0 -276 -49 -326 -152 -345c109 -32 173 -130 173 -392h-163c-1 251 -50 331 -135 331h-39v-331h-164v331h-39c-85 0 -134 -80 -135 -331h-163c0 262 64 360 173 392
c-103 19 -152 69 -152 345z" />
    <glyph glyph-name="uni0417" unicode="&#x417;" horiz-adv-x="545" 
d="M514 213c0 -143 -98 -225 -294 -225c-67 0 -138 12 -178 31v116c47 -23 105 -34 165 -34c102 0 146 44 146 120c0 71 -51 115 -139 115h-88v102h91c74 0 116 38 116 103c0 62 -36 97 -123 97c-60 0 -114 -17 -152 -36v118c31 14 98 28 168 28c185 0 265 -80 265 -191
c0 -85 -43 -145 -119 -160c68 -18 142 -77 142 -184z" />
    <glyph glyph-name="uni0418" unicode="&#x418;" horiz-adv-x="682" 
d="M62 0h120v36l318 427v-463h120v737h-120v-36l-318 -430v466h-120v-737z" />
    <glyph glyph-name="uni0419" unicode="&#x419;" horiz-adv-x="682" 
d="M62 0h120v36l318 427v-463h120v737h-120v-36l-318 -430v466h-120v-737zM522 947c0 -96 -90 -166 -172 -166c-95 0 -172 71 -172 166h82c6 -50 40 -86 90 -86s84 36 90 86h82z" />
    <glyph glyph-name="uni041A" unicode="&#x41a;" horiz-adv-x="611" 
d="M393 737h162c0 -276 -49 -326 -152 -345c109 -32 173 -130 173 -392h-164c-1 251 -50 331 -135 331h-39v-331h-166v737h166v-300h34c91 0 121 38 121 300z" />
    <glyph glyph-name="uni041B" unicode="&#x41b;" horiz-adv-x="780" 
d="M20 22v142c27 -13 51 -21 81 -21c62 0 90 28 106 234c5 66 18 279 23 360h478v-737h-166v623h-159l-17 -252c-20 -300 -74 -375 -216 -375c-53 0 -101 9 -130 26z" />
    <glyph glyph-name="uni041C" unicode="&#x41c;" horiz-adv-x="918" 
d="M852 0h-157v415l-221 -415h-86l-211 411v-411h-115v737h123l275 -531l278 531h114v-737z" />
    <glyph glyph-name="uni041D" unicode="&#x41d;" horiz-adv-x="701" 
d="M629 0h-166v317h-225v-317h-166v737h166v-307h225v307h166v-737z" />
    <glyph glyph-name="uni041E" unicode="&#x41e;" horiz-adv-x="672" 
d="M638 345c0 -233 -122 -357 -303 -357c-177 0 -301 124 -301 355v42c0 213 105 362 306 362c198 0 298 -154 298 -362v-40zM471 355v20c0 181 -24 260 -136 260c-98 0 -134 -55 -134 -260v-18c0 -200 23 -262 134 -262c92 0 136 71 136 260z" />
    <glyph glyph-name="uni041F" unicode="&#x41f;" horiz-adv-x="698" 
d="M626 0h-166v623h-222v-623h-166v737h554v-737z" />
    <glyph glyph-name="uni0420" unicode="&#x420;" horiz-adv-x="581" 
d="M560 488c0 -125 -77 -189 -222 -189h-100v-299h-166v737h276c158 0 212 -89 212 -191v-58zM390 477v71c0 57 -31 82 -100 82h-52v-230h60c51 0 92 26 92 77z" />
    <glyph glyph-name="uni0421" unicode="&#x421;" horiz-adv-x="577" 
d="M537 20c-22 -14 -88 -32 -166 -32c-197 0 -337 123 -337 362v30c0 222 143 367 335 367c81 0 137 -10 168 -26v-120c-28 14 -77 29 -141 29c-121 0 -191 -97 -191 -260v-10c0 -177 67 -258 176 -258c74 0 126 18 156 32v-114z" />
    <glyph glyph-name="uni0422" unicode="&#x422;" 
d="M495 627h-162v-627h-166v627h-162v110h490v-110z" />
    <glyph glyph-name="uni0423" unicode="&#x423;" horiz-adv-x="703" 
d="M61 19v118c34 -15 87 -25 130 -25c42 0 80 10 113 83l-294 542h172l155 -305c12 -24 37 -80 37 -80s20 57 29 77l138 308h158l-240 -542c-66 -148 -122 -202 -240 -202c-69 0 -131 11 -158 26z" />
    <glyph glyph-name="uni0424" unicode="&#x424;" horiz-adv-x="846" 
d="M339 0v74c-180 9 -308 71 -308 270v42c0 176 100 264 308 274v93h158v-92c201 -9 311 -86 311 -275v-40c0 -204 -121 -265 -311 -272v-74h-158zM497 177c88 7 143 47 143 166v45c0 112 -50 157 -143 165v-376zM339 178v375c-91 -8 -140 -49 -140 -165v-43
c0 -118 54 -159 140 -167z" />
    <glyph glyph-name="uni0425" unicode="&#x425;" horiz-adv-x="611" 
d="M616 0h-188l-140 253l-153 -253h-139l227 368l-203 369h188l126 -227l137 227h139l-212 -342z" />
    <glyph glyph-name="uni0426" unicode="&#x426;" horiz-adv-x="705" 
d="M620 115v622h-166v-623h-216v623h-166v-737h496v-184h121v299h-69z" />
    <glyph glyph-name="uni0427" unicode="&#x427;" horiz-adv-x="655" 
d="M56 506v231h164v-227c0 -75 40 -116 116 -116h95v343h152v-737h-152v289h-143c-148 0 -232 71 -232 217z" />
    <glyph glyph-name="uni0428" unicode="&#x428;" horiz-adv-x="1026" 
d="M72 0v737h164v-623h195v623h164v-623h195v623h164v-737h-882z" />
    <glyph glyph-name="uni0429" unicode="&#x429;" horiz-adv-x="1039" 
d="M72 0v737h164v-623h195v623h164v-623h195v623h164v-622h69v-299h-121v184h-830z" />
    <glyph glyph-name="uni042A" unicode="&#x42a;" horiz-adv-x="717" 
d="M315 737v-269h97c160 0 262 -86 262 -232c0 -150 -99 -236 -263 -236h-248v627h-163v110h315zM510 238c0 79 -40 125 -139 125h-56v-257h65c94 0 130 44 130 132z" />
    <glyph glyph-name="uni042B" unicode="&#x42b;" horiz-adv-x="626" 
d="M224 737v-269h87c160 0 262 -86 262 -232c0 -150 -99 -236 -263 -236h-238v737h152zM409 238c0 79 -40 125 -139 125h-46v-257h55c94 0 130 44 130 132zM804 0h-162v737h162v-737z" />
    <glyph glyph-name="uni042C" unicode="&#x42c;" horiz-adv-x="626" 
d="M224 737v-269h97c160 0 262 -86 262 -232c0 -150 -99 -236 -263 -236h-248v737h152zM419 238c0 79 -40 125 -139 125h-56v-257h65c94 0 130 44 130 132z" />
    <glyph glyph-name="uni042D" unicode="&#x42d;" horiz-adv-x="577" 
d="M40 20c22 -14 88 -32 166 -32c200 0 337 113 337 362v30c0 232 -140 367 -335 367c-81 0 -137 -10 -168 -26v-120c28 14 77 29 141 29c107 0 177 -66 189 -206h-272v-111h273c-9 -154 -76 -211 -175 -211c-74 0 -126 18 -156 32v-114z" />
    <glyph glyph-name="uni042E" unicode="&#x42e;" horiz-adv-x="1005" 
d="M973 345c0 -233 -121 -357 -298 -357c-165 0 -287 114 -296 329h-141v-317h-166v737h166v-307h143c14 189 117 317 299 317c193 0 293 -154 293 -362v-40zM806 355v20c0 181 -23 260 -131 260c-93 0 -129 -55 -129 -260v-18c0 -200 23 -262 129 -262c87 0 131 71 131 260
z" />
    <glyph glyph-name="uni042F" unicode="&#x42f;" horiz-adv-x="611" 
d="M35 0h164c2 238 43 331 135 331h39v-331h166v737h-290c-140 0 -194 -69 -194 -159v-40c0 -85 53 -136 154 -146c-116 -34 -174 -141 -174 -392zM218 523v20c0 65 36 89 101 89h54v-195h-45c-79 0 -110 29 -110 86z" />
    <glyph glyph-name="uni0430" unicode="&#x430;" horiz-adv-x="604" 
d="M538 0h-146l-3 73c-24 -47 -85 -80 -160 -80c-124 0 -188 63 -188 189v10c0 127 92 196 235 196c44 0 91 -15 111 -33v55c0 39 -38 69 -101 69c-68 0 -124 -18 -162 -40v96c49 22 110 38 201 38c146 0 213 -62 213 -206v-367zM388 188v15c0 67 -30 104 -95 104
c-58 0 -95 -31 -95 -105v-15c0 -76 40 -95 96 -95c51 0 94 31 94 96z" />
    <glyph glyph-name="uni0431" unicode="&#x431;" horiz-adv-x="653" 
d="M612 260c0 -151 -103 -272 -289 -272c-158 0 -282 100 -282 272v181c0 177 102 255 286 282l155 22v-107l-155 -15c-108 -10 -169 -61 -174 -159c32 42 100 77 180 77c189 0 279 -122 279 -267v-14zM453 252v24c0 100 -38 159 -126 159c-83 0 -127 -54 -127 -159v-24
c0 -111 48 -164 125 -164c78 0 128 45 128 164z" />
    <glyph glyph-name="uni0432" unicode="&#x432;" horiz-adv-x="578" 
d="M541 165c0 -114 -77 -165 -199 -165h-282v562h291c122 0 166 -58 166 -128c0 -72 -36 -119 -104 -127c71 -8 128 -49 128 -142zM373 408c0 40 -18 66 -68 66h-92v-137h94c49 0 66 28 66 71zM386 171c0 52 -27 83 -82 83h-91v-165h95c54 0 78 29 78 82z" />
    <glyph glyph-name="uni0433" unicode="&#x433;" horiz-adv-x="456" 
d="M444 562v-113h-228v-449h-156v562h384z" />
    <glyph glyph-name="uni0434" unicode="&#x434;" horiz-adv-x="694" 
d="M20 -184v294h67c29 0 59 18 69 94c1 10 45 358 45 358h414v-452h59v-294h-113v184h-428v-184h-113zM276 110h190v347h-130l-35 -264c-5 -35 -13 -59 -25 -83z" />
    <glyph glyph-name="uni0435" unicode="&#x435;" horiz-adv-x="636" 
d="M589 248h-382c0 -126 63 -164 153 -164c59 0 122 16 189 46v-94c-47 -27 -120 -48 -215 -48c-174 0 -284 93 -284 271v40c0 153 96 277 275 277c169 0 264 -110 264 -273v-55zM438 334c-4 110 -45 144 -113 144c-57 0 -113 -31 -117 -144h230z" />
    <glyph glyph-name="uni0436" unicode="&#x436;" horiz-adv-x="844" 
d="M47 562h150c0 -199 13 -229 75 -229h74v229h152v-229h74c62 0 76 30 76 229h149c0 -218 -34 -253 -103 -269c83 -17 121 -94 121 -293h-156c-1 191 -23 241 -80 241h-81v-241h-152v241h-81c-57 0 -79 -50 -80 -241h-156c0 199 38 276 121 293c-69 16 -103 51 -103 269z
" />
    <glyph glyph-name="uni0437" unicode="&#x437;" horiz-adv-x="451" 
d="M423 162c0 -111 -82 -171 -236 -171c-54 0 -118 8 -149 24v106c36 -17 80 -26 126 -26c70 0 102 25 102 78c0 50 -35 75 -98 75h-67v88h71c52 0 83 23 83 70c0 43 -28 63 -89 63c-46 0 -87 -13 -115 -26v103c23 11 77 23 142 23c144 0 213 -60 213 -146
c0 -65 -31 -111 -90 -123c56 -13 107 -58 107 -138z" />
    <glyph glyph-name="uni0438" unicode="&#x438;" horiz-adv-x="623" 
d="M60 0h134v24l235 301v-325h134v562h-134v-24l-235 -305v329h-134v-562z" />
    <glyph glyph-name="uni0439" unicode="&#x439;" horiz-adv-x="623" 
d="M488 776c0 -106 -85 -179 -177 -179c-102 0 -177 75 -177 179h84c4 -50 38 -85 92 -85c55 0 89 35 93 85h85zM60 0h134v24l235 301v-325h134v562h-134v-24l-235 -305v329h-134v-562z" />
    <glyph glyph-name="uni043A" unicode="&#x43a;" horiz-adv-x="563" 
d="M364 562h152c0 -218 -34 -253 -103 -269c83 -17 120 -94 120 -293h-157c-2 191 -24 241 -81 241h-81v-241h-154v562h154v-229h74c63 0 76 30 76 229z" />
    <glyph glyph-name="uni043B" unicode="&#x43b;" horiz-adv-x="656" 
d="M19 16v111c21 -10 39 -15 62 -15c58 0 77 53 100 450h415v-562h-152v457h-126c-24 -395 -75 -460 -191 -460c-41 0 -86 7 -108 19z" />
    <glyph glyph-name="uni043C" unicode="&#x43c;" horiz-adv-x="750" 
d="M60 0v562h149l169 -425l168 425h144v-562h-131v302c0 22 2 56 2 56s-10 -27 -19 -55l-117 -303h-114l-117 302c-10 25 -21 56 -21 56s2 -36 2 -58v-300h-115z" />
    <glyph glyph-name="uni043D" unicode="&#x43d;" horiz-adv-x="638" 
d="M578 0h-157v232h-205v-232h-156v562h156v-225h205v225h157v-562z" />
    <glyph glyph-name="uni043E" unicode="&#x43e;" horiz-adv-x="664" 
d="M614 264c0 -175 -108 -276 -281 -276c-174 0 -283 108 -283 276v36c0 165 109 276 282 276c177 0 282 -113 282 -276v-36zM453 278v8c0 138 -34 190 -121 190c-85 0 -120 -51 -120 -190v-8c0 -143 35 -193 120 -193c79 0 121 44 121 193z" />
    <glyph glyph-name="uni043F" unicode="&#x43f;" horiz-adv-x="633" 
d="M60 0v562h514v-562h-157v452h-201v-452h-156z" />
    <glyph glyph-name="uni0440" unicode="&#x440;" horiz-adv-x="634" 
d="M586 260c0 -173 -88 -267 -235 -267c-38 0 -90 9 -122 37v-197h-156v729h150l4 -76c27 56 94 87 169 87c102 0 190 -68 190 -248v-65zM425 268v37c0 122 -36 159 -92 159c-52 0 -87 -22 -104 -61v-272c6 -26 43 -53 95 -53c64 0 101 48 101 190z" />
    <glyph glyph-name="uni0441" unicode="&#x441;" horiz-adv-x="549" 
d="M498 30c-12 -10 -86 -42 -151 -42c-181 0 -297 93 -297 282v24c0 170 113 282 293 282c70 0 133 -21 155 -43v-105c-28 26 -76 45 -132 45c-94 0 -147 -65 -147 -183v-10c0 -136 41 -191 130 -191c63 0 127 24 149 42v-101z" />
    <glyph glyph-name="uni0442" unicode="&#x442;" horiz-adv-x="517" 
d="M514 451h-177v-451h-157v451h-177v111h511v-111z" />
    <glyph glyph-name="uni0443" unicode="&#x443;" horiz-adv-x="581" 
d="M580 562l-324 -729h-136l89 202l-213 527h159l139 -362l152 362h134z" />
    <glyph glyph-name="uni0444" unicode="&#x444;" horiz-adv-x="801" 
d="M325 -167v155c-161 0 -284 101 -284 276v36c0 150 108 274 284 275v162h151v-162c191 -1 285 -127 285 -275v-36c0 -152 -102 -273 -285 -276v-155h-151zM325 88v381c-81 -2 -125 -56 -125 -169v-39c0 -119 48 -173 125 -173zM476 88c77 0 126 47 126 173v39
c0 109 -38 169 -126 169v-381z" />
    <glyph glyph-name="uni0445" unicode="&#x445;" horiz-adv-x="594" 
d="M592 0h-181l-123 179c1 0 -130 -179 -130 -179h-157l212 288c0 1 -188 274 -188 274h181s100 -146 100 -147l108 147h154s-186 -256 -187 -256c0 1 211 -306 211 -306z" />
    <glyph glyph-name="uni0446" unicode="&#x446;" horiz-adv-x="644" 
d="M60 0v562h156v-452h192v452h157v-452h59v-294h-113v184h-451z" />
    <glyph glyph-name="uni0447" unicode="&#x447;" horiz-adv-x="581" 
d="M368 0v206h-116c-132 0 -210 72 -210 195v161h156v-158c0 -62 35 -98 81 -98h89v256h153v-562h-153z" />
    <glyph glyph-name="uni0448" unicode="&#x448;" horiz-adv-x="880" 
d="M60 0v562h149v-452h157v452h149v-452h157v452h149v-562h-761z" />
    <glyph glyph-name="uni0449" unicode="&#x449;" horiz-adv-x="900" 
d="M60 0v562h149v-452h157v452h149v-452h157v452h149v-452h59v-294h-113v184h-707z" />
    <glyph glyph-name="uni044A" unicode="&#x44a;" horiz-adv-x="638" 
d="M167 0v463h-153v99h305v-199h103c128 0 197 -70 197 -185c0 -119 -70 -178 -202 -178h-250zM319 97h76c41 0 68 25 68 87c0 52 -22 85 -72 85h-72v-172z" />
    <glyph glyph-name="uni044B" unicode="&#x44b;" horiz-adv-x="780" 
d="M60 0v562h150v-199h96c128 0 197 -70 197 -185c0 -119 -71 -178 -202 -178h-241zM210 97h71c41 0 68 25 68 87c0 52 -22 85 -72 85h-67v-172zM568 0v562h153v-562h-153z" />
    <glyph glyph-name="uni044C" unicode="&#x44c;" horiz-adv-x="540" 
d="M214 562v-199h109c129 0 198 -70 198 -185c0 -119 -71 -178 -203 -178h-258v562h154zM363 184c0 52 -23 85 -72 85h-77v-172h81c41 0 68 25 68 87z" />
    <glyph glyph-name="uni044D" unicode="&#x44d;" horiz-adv-x="596" 
d="M546 259v47c0 178 -110 271 -284 271c-95 0 -168 -21 -215 -48v-94c67 30 130 46 189 46c90 0 153 -38 153 -148h-289v-85h289c0 -126 -63 -164 -153 -164c-59 0 -122 16 -189 46v-94c47 -27 120 -48 215 -48c174 0 284 93 284 271z" />
    <glyph glyph-name="uni044E" unicode="&#x44e;" horiz-adv-x="946" 
d="M220 0h-154v562h154v-229h119c14 135 121 242 277 242c183 0 280 -127 280 -275v-36c0 -153 -105 -276 -283 -276c-145 0 -266 95 -275 256h-118v-244zM737 261v39c0 109 -40 169 -120 169c-76 0 -120 -55 -120 -169v-39c0 -119 49 -173 118 -173c71 0 122 46 122 173z
" />
    <glyph glyph-name="uni044F" unicode="&#x44f;" horiz-adv-x="562" 
d="M29 0h157c1 184 24 226 81 226h87v-226h154v562h-312c-94 0 -146 -61 -146 -124v-43c0 -60 27 -105 99 -118c-82 -18 -120 -79 -120 -277zM201 379v24c0 44 15 68 54 68h99v-153h-90c-46 0 -63 24 -63 61z" />
    <glyph glyph-name="uni0451" unicode="&#x451;" horiz-adv-x="636" 
d="M589 248h-382c0 -126 63 -164 153 -164c59 0 122 16 189 46v-94c-47 -27 -120 -48 -215 -48c-174 0 -284 93 -284 271v40c0 153 96 277 275 277c169 0 264 -110 264 -273v-55zM438 334c-4 110 -45 144 -113 144c-57 0 -113 -31 -117 -144h230zM508 672
c0 -39 -30 -68 -67 -68c-35 0 -66 29 -66 68c0 36 30 67 66 67c38 0 67 -31 67 -67zM284 672c0 -39 -30 -68 -67 -68c-36 0 -66 30 -66 68c0 35 29 67 66 67c39 0 67 -32 67 -67z" />
    <glyph glyph-name="uni0452" unicode="&#x452;" horiz-adv-x="649" 
d="M577 324v-287c0 -135 -74 -211 -183 -211c-45 0 -101 6 -140 16v106c22 -6 55 -12 91 -12c49 0 76 21 76 80v308c0 33 -29 60 -74 60s-76 -20 -102 -50v-334h-156v564h-89v89h89v84h154v-84h177v-89h-177v-158c26 57 95 97 185 97c92 0 149 -55 149 -179z" />
    <glyph glyph-name="uni0453" unicode="&#x453;" horiz-adv-x="456" 
d="M444 562v-113h-228v-449h-156v562h384zM421 769l-160 -173h-106l122 173h144z" />
    <glyph glyph-name="uni0454" unicode="&#x454;" horiz-adv-x="596" 
d="M50 259v47c0 178 110 271 284 271c95 0 168 -21 215 -48v-94c-67 30 -130 46 -189 46c-90 0 -153 -38 -153 -148h289v-85h-289c0 -126 63 -164 153 -164c59 0 122 16 189 46v-94c-47 -27 -120 -48 -215 -48c-174 0 -284 93 -284 271z" />
    <glyph glyph-name="uni0455" unicode="&#x455;" horiz-adv-x="455" 
d="M443 175c0 -104 -83 -183 -209 -183c-99 0 -171 15 -202 31v99c30 -18 93 -40 164 -40c72 0 108 28 108 68c0 38 -17 52 -127 86c-102 30 -138 85 -138 173c0 90 70 166 212 166c66 0 109 -11 149 -29v-95c-30 18 -90 30 -140 30c-57 0 -96 -20 -96 -55
c0 -38 30 -49 112 -73c121 -36 167 -87 167 -178z" />
    <glyph glyph-name="uni0456" unicode="&#x456;" horiz-adv-x="298" 
d="M229 606h-159v132h159v-132zM227 0h-156v562h156v-562z" />
    <glyph glyph-name="uni0457" unicode="&#x457;" horiz-adv-x="298" 
d="M228 0h-156v562h156v-562zM333 672c0 -39 -30 -68 -67 -68c-35 0 -66 29 -66 68c0 36 30 67 66 67c38 0 67 -31 67 -67zM109 672c0 -39 -30 -68 -67 -68c-36 0 -66 30 -66 68c0 35 29 67 66 67c39 0 67 -32 67 -67z" />
    <glyph glyph-name="uni0458" unicode="&#x458;" horiz-adv-x="309" 
d="M241 606h-159v132h159v-132zM240 37c0 -135 -74 -211 -183 -211c-45 0 -101 6 -140 16v106c22 -6 55 -12 91 -12c49 0 76 21 76 80v546h156v-525z" />
    <glyph glyph-name="uni0459" unicode="&#x459;" horiz-adv-x="920" 
d="M594 562v-199h109c129 0 198 -70 198 -185c0 -119 -71 -178 -203 -178h-254v457h-128c-24 -395 -73 -460 -189 -460c-41 0 -86 7 -108 19v111c21 -10 39 -15 62 -15c58 0 77 53 100 450h413zM743 184c0 52 -23 85 -72 85h-77v-172h81c41 0 68 25 68 87z" />
    <glyph glyph-name="uni045A" unicode="&#x45a;" horiz-adv-x="898" 
d="M572 562v-199h109c129 0 198 -70 198 -185c0 -119 -71 -178 -203 -178h-257v232h-205v-232h-154v562h154v-225h205v225h153zM721 184c0 52 -23 85 -72 85h-77v-172h81c41 0 68 25 68 87z" />
    <glyph glyph-name="uni045B" unicode="&#x45b;" horiz-adv-x="649" 
d="M420 564h-177v-158c26 57 95 97 185 97c92 0 149 -55 149 -179v-324h-156v324c0 33 -29 60 -74 60s-76 -20 -102 -50v-334h-156v564h-89v89h89v84h154v-84h177v-89z" />
    <glyph glyph-name="uni045C" unicode="&#x45c;" horiz-adv-x="563" 
d="M364 562h152c0 -218 -34 -253 -103 -269c83 -17 120 -94 120 -293h-157c-2 191 -24 241 -81 241h-81v-241h-154v562h154v-229h74c63 0 76 30 76 229zM456 769l-160 -173h-106l122 173h144z" />
    <glyph glyph-name="uni045E" unicode="&#x45e;" horiz-adv-x="581" 
d="M580 562l-324 -729h-136l89 202l-213 527h159l139 -362l152 362h134zM467 769c0 -96 -90 -166 -172 -166c-95 0 -172 71 -172 166h82c6 -50 40 -86 90 -86s84 36 90 86h82z" />
    <glyph glyph-name="uni045F" unicode="&#x45f;" horiz-adv-x="633" 
d="M60 0v562h156v-452h197v452h157v-562h-199v-184h-113v184h-198z" />
    <glyph glyph-name="uni0490" unicode="&#x490;" horiz-adv-x="557" 
d="M72 0v737h330v176h121v-299h-285v-614h-166z" />
    <glyph glyph-name="uni0491" unicode="&#x491;" horiz-adv-x="456" 
d="M444 690v-241h-228v-449h-156v562h271v128h113z" />
    <glyph glyph-name="endash" unicode="&#x2013;" 
d="M471 274h-442v116h442v-116z" />
    <glyph glyph-name="emdash" unicode="&#x2014;" horiz-adv-x="833" 
d="M794 274h-755v116h755v-116z" />
    <glyph glyph-name="quoteleft" unicode="&#x2018;" horiz-adv-x="332" 
d="M251 417h-166v166c0 118 81 164 166 164v-72c-54 0 -80 -20 -80 -92h80v-166z" />
    <glyph glyph-name="quoteright" unicode="&#x2019;" horiz-adv-x="332" 
d="M253 571c0 -116 -80 -164 -166 -164v72c54 0 80 20 80 92h-80v166h166v-166z" />
    <glyph glyph-name="quotesinglbase" unicode="&#x201a;" horiz-adv-x="332" 
d="M253 0c0 -116 -80 -164 -166 -164v72c54 0 80 20 80 92h-80v166h166v-166z" />
    <glyph glyph-name="quotedblleft" unicode="&#x201c;" horiz-adv-x="537" 
d="M476 417h-166v166c0 116 80 164 166 164v-72c-54 0 -80 -20 -80 -92h80v-166zM231 417h-166v166c0 118 81 164 166 164v-72c-54 0 -80 -20 -80 -92h80v-166z" />
    <glyph glyph-name="quotedblright" unicode="&#x201d;" horiz-adv-x="537" 
d="M478 571c0 -116 -80 -164 -166 -164v72c54 0 80 20 80 92h-80v166h166v-166zM233 571c0 -116 -80 -164 -166 -164v72c54 0 80 20 80 92h-80v166h166v-166z" />
    <glyph glyph-name="quotedblbase" unicode="&#x201e;" horiz-adv-x="537" 
d="M478 0c0 -116 -80 -164 -166 -164v72c54 0 80 20 80 92h-80v166h166v-166zM233 0c0 -116 -80 -164 -166 -164v72c54 0 80 20 80 92h-80v166h166v-166z" />
    <glyph glyph-name="dagger" unicode="&#x2020;" horiz-adv-x="512" 
d="M505 465h-175l-20 -632h-117l-20 632h-166v96h166v176h157v-176h175v-96z" />
    <glyph glyph-name="daggerdbl" unicode="&#x2021;" horiz-adv-x="512" 
d="M507 328h-191l-4 -495h-117l-3 495h-183v86h178l-2 62h-176v86h172l-6 175h157l-6 -175h181v-86h-185l-2 -62h187v-86z" />
    <glyph glyph-name="bullet" unicode="&#x2022;" horiz-adv-x="583" 
d="M83 375c0 114 95 208 209 208s208 -94 208 -208c0 -112 -92 -208 -208 -208c-117 0 -209 95 -209 208z" />
    <glyph glyph-name="ellipsis" unicode="&#x2026;" horiz-adv-x="854" 
d="M792 0h-159v159h159v-159zM508 0h-159v159h159v-159zM224 0h-159v159h159v-159z" />
    <glyph glyph-name="perthousand" unicode="&#x2030;" horiz-adv-x="1270" 
d="M412 563c0 -96 -74 -160 -186 -160c-110 0 -192 69 -192 159v27c0 83 71 159 192 159c120 0 186 -70 186 -159v-26zM732 737l-505 -737h-115l505 737h115zM1227 149c0 -108 -76 -160 -184 -160c-117 0 -193 66 -193 159v27c0 81 70 159 193 159c116 0 184 -67 184 -159
v-26zM811 149c0 -108 -76 -160 -184 -160c-117 0 -193 66 -193 159v27c0 81 70 159 193 159c116 0 184 -67 184 -159v-26zM287 568v8c0 53 -8 89 -61 89c-50 0 -66 -35 -66 -89v-8c0 -48 17 -89 67 -89c48 0 60 37 60 89zM1103 154v8c0 53 -9 89 -60 89s-67 -34 -67 -89v-8
c0 -48 18 -89 68 -89c44 0 59 37 59 89zM687 154v8c0 53 -9 89 -60 89s-67 -34 -67 -89v-8c0 -48 18 -89 68 -89c44 0 59 37 59 89z" />
    <glyph glyph-name="guilsinglleft" unicode="&#x2039;" horiz-adv-x="363" 
d="M330 60l-302 182v104l302 186v-134l-169 -104l169 -100v-134z" />
    <glyph glyph-name="guilsinglright" unicode="&#x203a;" horiz-adv-x="363" 
d="M33 60v134l169 100l-169 104v134l302 -186v-104z" />
    <glyph glyph-name="fraction" unicode="&#x2044;" horiz-adv-x="430" 
d="M499 737l-462 -737h-106l462 737h106z" />
    <glyph glyph-name="fraction" unicode="&#x2215;" horiz-adv-x="430" 
d="M499 737l-462 -737h-106l462 737h106z" />
    <glyph glyph-name="Euro" unicode="&#x20ac;" horiz-adv-x="580" 
d="M521 20c-22 -14 -68 -32 -146 -32c-157 0 -252 78 -285 231h-79v87h69c-3 19 -2 72 -2 88h-67v87h75c27 164 126 266 287 266c81 0 117 -10 148 -26v-124c-28 14 -63 29 -121 29c-90 0 -136 -49 -153 -145h273v-87h-282c-1 -22 -1 -68 1 -88h281v-87h-269
c19 -80 60 -124 134 -124s106 18 136 32v-107z" />
    <glyph glyph-name="uni2116" unicode="&#x2116;" horiz-adv-x="1140" 
d="M618 0h-71l-361 463v-463h-114v737h85l347 -436v436h114v-737zM1106 530c0 -125 -75 -190 -204 -190c-127 0 -207 67 -207 190v17c0 121 78 201 206 201c129 0 205 -83 205 -201v-17zM1094 203h-387v93h387v-93zM980 541v6c0 90 -33 118 -79 118s-78 -33 -78 -118v-6
c0 -93 30 -118 78 -118c44 0 79 24 79 118z" />
    <glyph glyph-name="trademark" unicode="&#x2122;" horiz-adv-x="704" 
d="M683 432h-85v158l-94 -94h-23l-93 93v-157h-66v297h47l142 -142l141 142h31v-297zM282 670h-97v-238h-76v238h-97v59h270v-59z" />
    <glyph glyph-name="partialdiff" unicode="&#x2202;" horiz-adv-x="581" 
d="M544 280c-12 -187 -102 -292 -279 -292c-148 0 -234 120 -234 270c0 163 83 265 234 265c52 0 96 -31 120 -57c-12 118 -68 181 -160 181c-38 0 -70 -6 -112 -28v113c22 8 60 23 112 23c198 0 307 -175 319 -411c0 -8 2 -46 0 -64zM381 260c0 81 -29 158 -96 158
c-56 0 -91 -34 -91 -160c0 -6 1 -12 1 -18c0 -94 28 -160 90 -160c61 0 93 68 96 166v14z" />
    <glyph glyph-name="product" unicode="&#x220f;" horiz-adv-x="664" 
d="M652 627h-75v-627h-165v627h-160v-627h-165v627h-74v110h639v-110z" />
    <glyph glyph-name="summation" unicode="&#x2211;" horiz-adv-x="623" 
d="M593 0h-551v97l276 279l-266 266v95h501v-110h-287l243 -243l-257 -255h341v-129z" />
    <glyph glyph-name="minus" unicode="&#x2212;" horiz-adv-x="580" 
d="M530 278h-479v116h479v-116z" />
    <glyph glyph-name="radical" unicode="&#x221a;" horiz-adv-x="611" 
d="M659 737l-376 -761h-97l-166 226l120 76l92 -140l281 599h146z" />
    <glyph glyph-name="infinity" unicode="&#x221e;" horiz-adv-x="754" 
d="M713 333c0 -110 -72 -168 -176 -168c-73 0 -124 32 -163 85c-39 -57 -83 -83 -159 -83c-103 0 -178 55 -178 166c0 110 78 166 176 166c75 0 126 -33 163 -88c38 52 88 86 158 86c109 0 179 -61 179 -164zM622 333c0 50 -41 83 -87 83c-37 0 -62 -13 -107 -82
c38 -64 65 -84 109 -84c47 0 85 36 85 83zM321 330c-33 61 -61 84 -108 84c-44 0 -85 -36 -85 -82c0 -49 38 -84 85 -84c45 0 76 21 108 82z" />
    <glyph glyph-name="integral" unicode="&#x222b;" horiz-adv-x="472" 
d="M486 713l-49 -102c-16 14 -37 28 -67 28c-37 0 -53 -26 -53 -77v-534c0 -120 -85 -201 -193 -201c-74 0 -109 11 -142 34l46 97c16 -14 39 -27 70 -27c38 0 53 30 53 81v534c0 120 85 201 193 201c78 0 111 -12 142 -34z" />
    <glyph glyph-name="approxequal" unicode="&#x2248;" horiz-adv-x="636" 
d="M610 448c0 -72 -58 -128 -145 -128c-65 0 -115 31 -161 66c-43 33 -90 67 -129 64c-33 -3 -48 -28 -48 -54c0 -31 11 -47 22 -66h-89c-14 15 -29 40 -29 81c0 77 53 135 149 135c59 0 120 -38 168 -71c42 -29 82 -60 120 -60c33 0 45 24 45 57c0 17 -8 48 -21 64h94
c12 -16 24 -50 24 -88zM610 199c0 -72 -58 -128 -145 -128c-65 0 -115 31 -161 65c-44 33 -90 67 -129 64c-33 -3 -48 -27 -48 -53c0 -32 11 -47 22 -67h-89c-14 16 -29 41 -29 81c0 78 53 135 149 135c59 0 120 -38 168 -71c41 -28 82 -59 120 -59c33 0 45 24 45 57
c0 17 -8 48 -21 64h94c12 -16 24 -51 24 -88z" />
    <glyph glyph-name="notequal" unicode="&#x2260;" horiz-adv-x="580" 
d="M520 115h-291l-66 -103l-73 45l37 58h-66v116h140l76 118h-216v116h291l73 114l74 -45l-45 -69h66v-116h-140l-76 -118h216v-116z" />
    <glyph glyph-name="lessequal" unicode="&#x2264;" 
d="M452 152l-415 169v102l415 170v-129l-232 -90l232 -94v-128zM452 0h-415v108h415v-108z" />
    <glyph glyph-name="greaterequal" unicode="&#x2265;" 
d="M48 152v128l232 94l-232 90v129l415 -170v-102zM48 0v108h415v-108h-415z" />
    <glyph glyph-name="lozenge" unicode="&#x25ca;" horiz-adv-x="670" 
d="M625 333l-290 -290l-290 290l290 290zM475 333l-140 140l-140 -140l140 -140z" />
    <glyph glyph-name="apple" unicode="&#xf8ff;" horiz-adv-x="884" 
d="M634 758c0 -56 -45 -178 -167 -181c2 97 47 177 164 203c2 -11 3 -15 3 -22zM262 758c0 7 1 11 3 22c117 -26 162 -106 164 -203c-122 3 -167 125 -167 181zM452 529c24 0 107 42 158 42c115 0 199 -106 199 -259c0 -165 -125 -382 -224 -382c-35 0 -95 34 -138 34
c-41 0 -103 -34 -138 -34c-99 0 -224 217 -224 382c0 153 84 259 199 259c51 0 146 -42 168 -42zM450 495c-21 0 -78 24 -108 24s-63 -105 -63 -177s63 -362 165 -362s190 254 190 359s-28 180 -73 180s-84 -27 -111 -24zM451 375c-3 30 -5 47 -5 71s8 41 8 41s6 -16 6 -40
s-4 -39 -9 -72zM493 420c3 -27 -3 -85 -38 -101c-6 46 2 88 35 111c2 -5 3 -6 3 -10zM407 420c0 4 1 5 3 10c33 -23 41 -65 35 -111c-35 16 -41 74 -38 101zM366 313c-2 3 -3 4 -4 8c30 32 57 19 80 -12c-28 -39 -65 -13 -76 4zM534 303c2 -3 3 -4 4 -8
c-30 -32 -57 -19 -80 12c28 39 65 13 76 -4zM493 196c0 -4 -1 -5 -3 -10c-33 23 -41 65 -35 111c35 -16 41 -74 38 -101zM407 196c-3 27 3 85 38 101c6 -46 -2 -88 -35 -111c-2 5 -3 6 -3 10zM447 12c-7 37 -1 72 -1 96s-5 82 4 112c12 -37 13 -91 13 -115s-7 -69 -16 -93z
" />
    <glyph glyph-name="NUL" horiz-adv-x="0" 
 />
    <glyph glyph-name="CR" horiz-adv-x="249" 
 />
    <glyph glyph-name="nbspace" horiz-adv-x="125" 
 />
    </font>
</defs>
</svg>
