<?xml version="1.0" standalone="no"?>
<!DOCTYPE svg PUBLIC "-//W3C//DTD SVG 1.1//EN" "http://www.w3.org/Graphics/SVG/1.1/DTD/svg11.dtd" >
<svg xmlns="http://www.w3.org/2000/svg" xmlns:xlink="http://www.w3.org/1999/xlink" version="1.1">
<metadata>
Created by FontForge 20150715 at Fri Jul 24 16:08:37 2015
 By System Administrator
[c] Copyright 1994-2004, The Font Bureau, Inc. Designed by David Berlow. Truth is a Trademark of The Font Bureau, Inc. All rights reserved.
</metadata>
<defs>
<font id="TruthCYR-Light" horiz-adv-x="500" >
  <font-face 
    font-family="TruthCYR Light"
    font-weight="300"
    font-stretch="normal"
    units-per-em="1000"
    panose-1="2 0 5 3 5 0 0 2 0 4"
    ascent="800"
    descent="-200"
    x-height="551"
    cap-height="737"
    bbox="-152 -240 1160 954"
    underline-thickness="20"
    underline-position="-133"
    stemh="47"
    stemv="59"
    unicode-range="U+0020-FB02"
  />
<missing-glyph 
 />
    <glyph glyph-name="fi" unicode="fi" horiz-adv-x="484" 
d="M410 0h-56v519h-213v-519h-56v519h-76v35h77v69c0 69 43 129 132 129c44 0 77 -8 101 -20l-16 -34c-16 8 -42 16 -75 16c-63 0 -87 -39 -87 -94v-66h269v-554z" />
    <glyph glyph-name="fl" unicode="fl" horiz-adv-x="483" 
d="M408 0h-56v687c-20 16 -65 27 -97 27c-74 0 -114 -45 -114 -118v-42h130v-35h-130v-519h-56v519h-76v35h77v43c0 93 56 155 153 155c45 0 93 -11 117 -24h52v-728z" />
    <glyph glyph-name=".notdef" 
 />
    <glyph glyph-name="NUL" horiz-adv-x="0" 
 />
    <glyph glyph-name="CR" horiz-adv-x="256" 
 />
    <glyph glyph-name="space" unicode=" " horiz-adv-x="256" 
 />
    <glyph glyph-name="space" unicode="&#xa0;" horiz-adv-x="256" 
 />
    <glyph glyph-name="onehalf" unicode="&#xbd;" horiz-adv-x="719" 
d="M145 288h-43v380h-79v26c57 2 87 18 92 44h30v-450zM568 737l-467 -737h-42l468 737h41zM715 0h-315v40c197 171 253 236 253 298c0 49 -38 85 -103 85c-53 0 -91 -24 -103 -53h-41c18 56 78 88 148 88c93 0 143 -49 143 -115c0 -77 -65 -145 -258 -309h276v-34z" />
    <glyph glyph-name="onequarter" unicode="&#xbc;" horiz-adv-x="677" 
d="M145 288h-43v380h-79v26c57 2 87 18 92 44h30v-450zM574 737l-467 -737h-42l468 737h41zM667 153h-54v-153h-39v153h-241v35l252 276h28v-274h54v-37zM574 190v222l-200 -222h200z" />
    <glyph glyph-name="onesuperior" unicode="&#xb9;" horiz-adv-x="356" 
d="M215 288h-43v380h-79v26c57 2 87 18 92 44h30v-450z" />
    <glyph glyph-name="threequarters" unicode="&#xbe;" horiz-adv-x="750" 
d="M300 408c0 -86 -70 -130 -142 -130c-55 0 -111 25 -139 74l28 20c24 -42 67 -62 105 -62c60 0 107 34 107 103c0 60 -54 95 -122 95h-34v30h39c81 0 112 37 112 91c0 52 -41 83 -94 83c-54 0 -86 -27 -97 -68h-37c15 71 75 102 135 102c75 0 132 -43 132 -113
c0 -74 -50 -101 -98 -108c54 -8 105 -45 105 -117zM642 737l-467 -737h-42l468 737h41zM733 153h-54v-153h-38v153h-242v34l252 276h28v-274h54v-36zM641 189v223l-200 -223h200z" />
    <glyph glyph-name="threesuperior" unicode="&#xb3;" horiz-adv-x="388" 
d="M336 408c0 -86 -69 -130 -142 -130c-55 0 -111 25 -139 74l28 20c24 -42 67 -62 105 -62c61 0 107 34 107 103c0 60 -54 95 -121 95h-34v30h38c81 0 113 36 113 91c0 52 -43 83 -95 83c-54 0 -86 -27 -97 -68h-37c15 71 75 102 135 102c75 0 132 -43 132 -113
c0 -74 -49 -101 -98 -108c54 -8 105 -44 105 -117z" />
    <glyph glyph-name="twosuperior" unicode="&#xb2;" horiz-adv-x="392" 
d="M366 288h-316v40c200 171 254 236 254 298c0 49 -38 85 -103 85c-53 0 -91 -24 -103 -53h-41c18 56 78 88 148 88c93 0 143 -48 143 -115c0 -76 -75 -155 -258 -309h276v-34z" />
    <glyph glyph-name="brokenbar" unicode="&#xa6;" horiz-adv-x="415" 
d="M233 367h-48v431h48v-431zM233 -198h-48v429h48v-429z" />
    <glyph glyph-name="minus" unicode="&#x2212;" horiz-adv-x="504" 
d="M453 340h-402v45h402v-45z" />
    <glyph glyph-name="exclam" unicode="!" horiz-adv-x="328" 
d="M195 737l-5 -559h-52l-6 559h63zM205 0h-83v97h83v-97z" />
    <glyph glyph-name="quotedbl" unicode="&#x22;" horiz-adv-x="420" 
d="M333 737l-10 -237h-42l-8 237h60zM147 737l-10 -237h-42l-8 237h60z" />
    <glyph glyph-name="numbersign" unicode="#" horiz-adv-x="691" 
d="M687 531l-10 -44h-160l-55 -231h171l-10 -45h-172l-50 -211h-35l50 211h-195l-50 -211h-35l49 211h-171l10 45h171l55 231h-182l10 44h183l49 206h38l-50 -206h193l49 206h37l-49 -206h159zM481 487h-194l-55 -231h194z" />
    <glyph glyph-name="dollar" unicode="$" horiz-adv-x="555" 
d="M513 197c0 -143 -115 -198 -236 -201l-5 -84h-31l6 84c-86 2 -152 17 -195 34v44c36 -16 110 -36 198 -38l21 335c-109 38 -204 72 -204 191c0 109 70 177 228 178c1 0 5 85 5 85h31l-6 -86c64 -4 118 -22 148 -36v-43c-31 15 -87 34 -152 38l-17 -285
c122 -42 209 -90 209 -216zM291 699c-116 -3 -175 -45 -175 -129c0 -89 69 -115 159 -146zM460 189c0 103 -74 138 -161 168l-19 -320c79 3 180 35 180 152z" />
    <glyph glyph-name="percent" unicode="%" horiz-adv-x="839" 
d="M364 562c0 -106 -72 -159 -165 -159c-89 0 -164 49 -164 159v27c0 105 71 159 166 159c92 0 163 -50 163 -159v-27zM676 737l-466 -737h-47l465 737h48zM804 152c0 -110 -73 -159 -164 -159s-165 48 -165 159v27c0 104 71 159 166 159c91 0 163 -49 163 -159v-27z
M318 567v15c0 95 -52 133 -117 133c-67 0 -124 -41 -120 -133v-15c0 -94 55 -134 119 -134c66 0 118 42 118 134zM758 156v15c0 96 -52 134 -117 134c-67 0 -120 -41 -120 -133v-15c0 -94 55 -134 119 -134c65 0 118 42 118 133z" />
    <glyph glyph-name="ampersand" unicode="&#x26;" horiz-adv-x="708" 
d="M282 381c14 -18 241 -221 241 -221c43 53 80 125 110 230l42 -18c-28 -104 -68 -184 -120 -246l131 -126h-61c-2 2 -91 80 -102 93c-81 -86 -176 -104 -258 -104c-143 0 -225 76 -225 186c0 88 59 150 174 213c-63 62 -114 123 -114 200c0 91 65 159 174 159
c116 0 177 -71 177 -158c0 -89 -51 -143 -169 -208zM250 412c109 57 152 106 152 172c0 67 -42 123 -127 123c-84 0 -126 -55 -126 -119c0 -60 43 -119 101 -176zM492 127c-20 24 -236 213 -249 228c-100 -54 -150 -118 -150 -180c0 -71 60 -140 174 -140
c70 0 153 15 225 92z" />
    <glyph glyph-name="quotesingle" unicode="'" horiz-adv-x="250" 
d="M152 737l-5 -235h-47l-5 235h57z" />
    <glyph glyph-name="parenleft" unicode="(" horiz-adv-x="379" 
d="M339 -87c-169 20 -285 164 -285 423c0 204 91 391 285 407v-30c-158 -24 -227 -196 -227 -377c0 -230 94 -364 227 -393v-30z" />
    <glyph glyph-name="parenright" unicode=")" horiz-adv-x="379" 
d="M325 336c0 -256 -114 -402 -285 -423v30c141 31 227 158 227 393c0 181 -65 353 -227 377v30c195 -15 285 -196 285 -407z" />
    <glyph glyph-name="asterisk" unicode="*" horiz-adv-x="535" 
d="M448 442h-142l114 -114l-24 -24l-128 128l-129 -130l-24 25l115 115h-142v34h139l-111 111l24 24l128 -127l129 129l24 -25l-112 -112h139v-34z" />
    <glyph glyph-name="plus" unicode="+" horiz-adv-x="510" 
d="M443 328h-167v-165h-43v165h-166v40h166v166h43v-166h167v-40z" />
    <glyph glyph-name="comma" unicode="," horiz-adv-x="285" 
d="M190 -9c0 -75 -40 -100 -95 -100v27c44 0 63 11 63 82h-54v111h86v-120z" />
    <glyph glyph-name="hyphen" unicode="-" horiz-adv-x="581" 
d="M529 313h-479v45h479v-45z" />
    <glyph glyph-name="hyphen" unicode="&#xad;" horiz-adv-x="581" 
d="M529 313h-479v45h479v-45z" />
    <glyph glyph-name="period" unicode="." horiz-adv-x="285" 
d="M189 0h-84v109h84v-109z" />
    <glyph glyph-name="slash" unicode="/" horiz-adv-x="403" 
d="M412 737l-384 -820h-43l384 820h43z" />
    <glyph glyph-name="zero" unicode="0" horiz-adv-x="512" 
d="M474 292c0 -218 -87 -304 -218 -304s-218 86 -218 304v151c0 217 87 304 218 304s218 -87 218 -304v-151zM99 307c0 -204 54 -265 157 -265s157 61 157 265v120c0 205 -54 266 -157 266s-157 -61 -157 -266v-120z" />
    <glyph glyph-name="one" unicode="1" horiz-adv-x="278" 
d="M201 0h-60v606h-121v39c113 7 142 43 151 92h30v-737z" />
    <glyph glyph-name="two" unicode="2" horiz-adv-x="510" 
d="M491 0h-465v56c293 208 380 364 380 487c0 95 -54 149 -157 149c-105 0 -155 -62 -164 -126h-59c11 98 82 181 223 181c147 0 218 -80 218 -204c0 -138 -101 -311 -378 -493h402v-50z" />
    <glyph glyph-name="three" unicode="3" horiz-adv-x="510" 
d="M478 204c0 -140 -84 -216 -220 -216c-125 0 -201 68 -230 134l49 34c23 -60 75 -114 185 -114c99 0 156 62 156 163c0 109 -78 161 -191 161h-88v49h90c123 0 170 62 170 145c0 76 -44 134 -139 134c-91 0 -136 -51 -145 -114h-62c7 90 80 167 203 167
c141 0 205 -81 205 -183c0 -91 -47 -155 -141 -170c88 -17 158 -79 158 -190z" />
    <glyph glyph-name="four" unicode="4" horiz-adv-x="510" 
d="M504 255h-89v-255h-59v255h-339l-5 63l361 421h42v-435h89v-49zM357 304v343l-297 -343h297z" />
    <glyph glyph-name="five" unicode="5" horiz-adv-x="510" 
d="M494 259c0 -184 -102 -270 -236 -270c-120 0 -202 55 -245 147l49 29c24 -70 102 -123 191 -123c109 0 180 64 180 216s-72 205 -166 205c-79 0 -128 -31 -160 -93l-56 28l14 339h375v-51h-326l-10 -263c24 58 94 93 175 93c124 0 215 -74 215 -257z" />
    <glyph glyph-name="six" unicode="6" horiz-adv-x="510" 
d="M486 253c0 -167 -90 -265 -222 -265c-135 0 -227 86 -227 328c0 343 106 429 255 429c58 0 94 -9 124 -18v-54c-40 12 -75 20 -132 20c-111 0 -182 -89 -186 -317c24 87 100 128 177 128c141 0 211 -95 211 -251zM426 249c0 122 -50 206 -164 206
c-97 0 -165 -83 -165 -199c0 -148 71 -213 165 -213c103 0 164 68 164 206z" />
    <glyph glyph-name="seven" unicode="7" horiz-adv-x="510" 
d="M488 680c-214 -177 -288 -430 -257 -680h-63c-32 228 43 509 267 687h-403v50h456v-57z" />
    <glyph glyph-name="eight" unicode="8" horiz-adv-x="510" 
d="M485 207c0 -146 -95 -219 -229 -219c-136 0 -227 78 -227 218c0 98 61 168 134 188v8c-66 18 -117 78 -117 162c0 102 74 183 209 183c147 0 207 -90 207 -180c0 -88 -48 -142 -115 -165v-8c74 -17 138 -81 138 -187zM406 557c0 78 -52 138 -151 138
c-100 0 -153 -58 -153 -137c0 -83 57 -135 154 -135c85 0 150 49 150 134zM425 211c0 103 -72 164 -169 164c-103 0 -167 -59 -167 -165c0 -112 69 -169 167 -169s169 53 169 170z" />
    <glyph glyph-name="nine" unicode="9" horiz-adv-x="510" 
d="M27 477c0 171 87 270 223 270c140 0 230 -84 230 -331c0 -338 -106 -425 -255 -425c-58 0 -91 10 -114 17v54c29 -11 68 -20 121 -20c104 0 184 70 188 320c-26 -92 -107 -133 -184 -133c-129 0 -209 90 -209 248zM88 481c0 -126 56 -203 160 -203c106 0 167 95 167 195
c0 162 -71 219 -164 219c-101 0 -163 -68 -163 -211z" />
    <glyph glyph-name="colon" unicode=":" horiz-adv-x="287" 
d="M187 448h-86v113h86v-113zM187 0h-86v113h86v-113z" />
    <glyph glyph-name="semicolon" unicode=";" horiz-adv-x="287" 
d="M187 448h-87v113h87v-113zM192 -6c0 -83 -38 -114 -102 -114v36c45 0 63 19 63 84h-52v114h91v-120z" />
    <glyph glyph-name="less" unicode="&#x3c;" horiz-adv-x="510" 
d="M469 74l-416 206v43l416 207v-58l-353 -171l353 -169v-58z" />
    <glyph glyph-name="equal" unicode="=" horiz-adv-x="510" 
d="M448 416h-387v49h387v-49zM448 182h-387v49h387v-49z" />
    <glyph glyph-name="greater" unicode="&#x3e;" horiz-adv-x="510" 
d="M42 74v58l352 169l-352 171v58l415 -207v-43z" />
    <glyph glyph-name="question" unicode="?" horiz-adv-x="448" 
d="M423 601c0 -76 -36 -123 -112 -160s-109 -81 -109 -165v-84h-56v97c0 101 49 144 121 181s99 63 99 126c0 52 -36 99 -144 99c-95 0 -150 -30 -191 -57v53c37 24 103 56 199 56c151 0 193 -80 193 -146zM216 0h-84v94h84v-94z" />
    <glyph glyph-name="at" unicode="@" horiz-adv-x="913" 
d="M869 338c0 -140 -67 -245 -169 -245c-52 0 -109 16 -122 105c-13 -66 -73 -105 -141 -105c-86 0 -157 57 -157 200c0 124 64 208 174 208c58 0 102 -37 112 -77v74h53v-246c0 -75 28 -116 78 -116c77 0 123 84 123 199c0 216 -138 357 -348 357
c-197 0 -358 -153 -358 -399c0 -270 151 -401 356 -401c68 0 154 23 196 45v-44c-42 -22 -112 -46 -195 -46c-235 0 -408 145 -408 445c0 268 176 442 410 442c252 0 396 -169 396 -396zM568 281v46c0 87 -48 132 -114 132c-77 0 -122 -59 -122 -168c0 -82 37 -156 116 -156
c71 0 120 55 120 146z" />
    <glyph glyph-name="A" unicode="A" horiz-adv-x="576" 
d="M575 0h-59l-71 211h-314l-70 -211h-60l244 737h78zM430 257l-146 429l-141 -429s288 0 287 0z" />
    <glyph glyph-name="B" unicode="B" horiz-adv-x="616" 
d="M572 214c0 -140 -86 -214 -238 -214h-244v737h245c130 0 188 -74 188 -169c0 -80 -30 -148 -111 -163c103 -13 160 -94 160 -191zM466 555c0 90 -51 134 -129 134h-189v-265h210c64 0 108 47 108 131zM511 218c0 94 -54 160 -161 160h-202v-330h193c116 0 170 63 170 170
z" />
    <glyph glyph-name="C" unicode="C" horiz-adv-x="553" 
d="M522 18c-30 -14 -91 -30 -173 -30c-171 0 -302 110 -302 362v30c0 227 107 367 309 367c83 0 139 -16 164 -25v-55c-30 11 -85 28 -171 28c-157 0 -239 -112 -239 -325v-10c0 -241 106 -323 253 -323c72 0 127 16 159 30v-49z" />
    <glyph glyph-name="D" unicode="D" horiz-adv-x="655" 
d="M605 353c0 -236 -99 -353 -292 -353h-223v737h212c179 0 303 -102 303 -354v-30zM544 358v20c0 204 -87 311 -245 311h-150v-642h170c148 0 225 95 225 311z" />
    <glyph glyph-name="E" unicode="E" horiz-adv-x="543" 
d="M522 0h-432v737h422v-48h-363v-292h296v-47h-296v-303h373v-47z" />
    <glyph glyph-name="F" unicode="F" horiz-adv-x="507" 
d="M494 689h-345v-292h290v-47h-290v-350h-59v737h404v-48z" />
    <glyph glyph-name="G" unicode="G" horiz-adv-x="628" 
d="M572 49c-43 -31 -125 -61 -224 -61c-182 0 -301 115 -301 362v40c0 229 123 358 301 358c86 0 145 -14 169 -24v-57c-35 16 -83 29 -163 29c-162 0 -243 -115 -243 -318v-18c0 -240 107 -324 241 -324c64 0 125 17 161 36v216h-160v48h219v-287z" />
    <glyph glyph-name="H" unicode="H" horiz-adv-x="664" 
d="M574 0h-60v349h-364v-349h-60v737h60v-339h364v339h60v-737z" />
    <glyph glyph-name="I" unicode="I" horiz-adv-x="244" 
d="M152 0h-60v737h60v-737z" />
    <glyph glyph-name="J" unicode="J" horiz-adv-x="459" 
d="M363 195c0 -143 -60 -202 -169 -202c-67 0 -123 10 -149 24v52c31 -14 90 -25 142 -25c74 0 116 42 116 151v542h60v-542z" />
    <glyph glyph-name="K" unicode="K" horiz-adv-x="649" 
d="M637 0h-70l-263 404l-154 -182v-222h-60v737h60v-438l360 438h65l-233 -287z" />
    <glyph glyph-name="L" unicode="L" horiz-adv-x="508" 
d="M484 0h-394v737l60 1v-690h334v-48z" />
    <glyph glyph-name="M" unicode="M" horiz-adv-x="850" 
d="M760 0h-55v629l-245 -629h-66l-249 629v-629h-55v737h68l272 -689l269 689h61v-737z" />
    <glyph glyph-name="N" unicode="N" horiz-adv-x="683" 
d="M593 0h-46l-401 631v-631h-56v737h48l399 -632v632h56v-737z" />
    <glyph glyph-name="O" unicode="O" horiz-adv-x="672" 
d="M624 345c0 -240 -104 -357 -288 -357c-171 0 -288 112 -288 355v42c0 235 106 362 288 362c191 0 288 -128 288 -362v-40zM562 355v20c0 219 -71 324 -226 324c-146 0 -226 -97 -226 -324v-18c0 -222 81 -320 226 -320c146 0 226 84 226 318z" />
    <glyph glyph-name="P" unicode="P" horiz-adv-x="578" 
d="M543 509c0 -117 -75 -192 -206 -192h-187v-317h-60v737h244c140 0 209 -77 209 -192v-36zM481 508v35c0 87 -49 144 -143 144h-188v-320h192c89 0 139 54 139 141z" />
    <glyph glyph-name="Q" unicode="Q" horiz-adv-x="672" 
d="M624 345c0 -226 -95 -343 -260 -354c-2 -89 54 -111 125 -111h78v-47h-84c-105 0 -176 38 -178 160c-144 4 -257 114 -257 350v42c0 234 106 362 286 362c188 0 290 -121 290 -362v-40zM562 352v26c0 221 -73 321 -228 321c-140 0 -224 -94 -224 -320v-29
c0 -218 80 -312 227 -312c145 0 225 83 225 314z" />
    <glyph glyph-name="R" unicode="R" horiz-adv-x="611" 
d="M553 0h-61c-1 264 -54 350 -155 350h-188v-350h-59v737h263c116 0 180 -73 180 -157v-42c0 -93 -51 -153 -137 -160c96 -18 157 -96 157 -378zM474 536v22c0 74 -43 128 -130 128h-195v-288h194c86 0 131 54 131 138z" />
    <glyph glyph-name="S" unicode="S" horiz-adv-x="575" 
d="M529 186c0 -119 -89 -196 -271 -196c-113 0 -176 18 -216 35v57c34 -18 109 -43 218 -43c155 0 210 68 210 142c0 73 -40 114 -181 168c-172 67 -219 118 -219 221c0 101 88 177 255 177c76 0 132 -16 163 -26v-52c-53 15 -106 27 -167 27c-135 0 -192 -57 -192 -120
c0 -73 25 -111 189 -175c148 -58 211 -108 211 -215z" />
    <glyph glyph-name="T" unicode="T" horiz-adv-x="505" 
d="M500 690h-217v-690h-61v690h-217v47h495v-47z" />
    <glyph glyph-name="U" unicode="U" horiz-adv-x="658" 
d="M582 232c0 -163 -93 -244 -251 -244c-144 0 -251 80 -251 258v491h60v-510c0 -108 66 -190 191 -190c126 0 192 59 192 196v504h59v-505z" />
    <glyph glyph-name="V" unicode="V" horiz-adv-x="565" 
d="M564 737l-250 -737h-72l-241 737h63l215 -676l225 676h60z" />
    <glyph glyph-name="W" unicode="W" horiz-adv-x="859" 
d="M854 737l-198 -737h-72l-157 656l-162 -656h-72l-188 737h64l165 -677l164 677h62l164 -677l169 677h61z" />
    <glyph glyph-name="X" unicode="X" horiz-adv-x="568" 
d="M563 0h-66l-216 332l-216 -332h-60l246 380l-233 357h66l202 -308l200 308h60l-231 -356z" />
    <glyph glyph-name="Y" unicode="Y" horiz-adv-x="629" 
d="M626 737l-280 -491v-246h-60v246l-281 491h61l254 -435l247 435h59z" />
    <glyph glyph-name="Z" unicode="Z" horiz-adv-x="541" 
d="M523 0h-496v58l430 629h-416v50h476v-59l-431 -628h437v-50z" />
    <glyph glyph-name="bracketleft" unicode="[" horiz-adv-x="323" 
d="M285 -109h-189v846h189v-47h-131v-755h131v-44z" />
    <glyph glyph-name="backslash" unicode="\" horiz-adv-x="404" 
d="M415 -83h-53l-374 820h53z" />
    <glyph glyph-name="bracketright" unicode="]" horiz-adv-x="323" 
d="M228 -109h-190v44h132v755h-132v47h190v-846z" />
    <glyph glyph-name="asciicircum" unicode="^" horiz-adv-x="550" 
d="M532 357h-60l-200 327l-194 -327h-60l226 380h63z" />
    <glyph glyph-name="underscore" unicode="_" horiz-adv-x="498" 
d="M498 -172h-498v48h498v-48z" />
    <glyph glyph-name="grave" unicode="`" 
d="M340 596h-51l-148 173h66z" />
    <glyph glyph-name="a" unicode="a" horiz-adv-x="549" 
d="M484 0h-51l-4 101c-25 -68 -103 -108 -191 -108c-110 0 -202 60 -202 192v10c0 111 80 193 212 193c79 0 147 -33 180 -96v121c0 58 -35 114 -147 114c-68 0 -137 -19 -175 -40v49c37 20 102 37 183 37c142 0 195 -81 195 -156v-417zM428 188v15c0 72 -67 142 -171 142
c-97 0 -164 -60 -164 -143v-15c0 -99 68 -150 164 -150c108 0 171 70 171 151z" />
    <glyph glyph-name="b" unicode="b" horiz-adv-x="579" 
d="M532 257c0 -185 -95 -265 -221 -265c-86 0 -151 41 -178 100l-5 -92h-55v737h57v-277c26 69 102 113 180 113c145 0 222 -90 222 -252v-64zM472 273v41c0 120 -49 210 -169 210c-73 0 -137 -40 -171 -120v-220c5 -83 74 -144 165 -144c104 0 175 48 175 233z" />
    <glyph glyph-name="c" unicode="c" horiz-adv-x="512" 
d="M469 27c-31 -17 -82 -38 -163 -38c-154 0 -256 84 -256 281v24c0 183 99 281 253 281c76 0 132 -18 159 -32v-59c-38 20 -92 38 -157 38c-111 0 -194 -66 -194 -234v-10c0 -178 82 -237 195 -237c62 0 128 20 163 41v-55z" />
    <glyph glyph-name="d" unicode="d" horiz-adv-x="579" 
d="M509 0h-54l-5 111c-27 -81 -86 -118 -181 -118c-126 0 -219 70 -219 258v59c0 170 93 263 229 263c79 0 146 -37 172 -94v258h58v-737zM450 178v242c-29 70 -93 103 -164 103c-108 0 -175 -76 -175 -225v-39c0 -167 70 -222 171 -222c75 0 145 30 168 141z" />
    <glyph glyph-name="e" unicode="e" horiz-adv-x="567" 
d="M534 261h-424c0 -155 84 -223 202 -223c90 0 152 26 183 43v-49c-39 -28 -114 -43 -194 -43c-115 0 -251 65 -251 270v40c0 174 104 275 245 275c150 0 239 -104 239 -273v-40zM474 307c0 146 -68 216 -177 216c-104 0 -185 -70 -187 -216h364z" />
    <glyph glyph-name="f" unicode="f" horiz-adv-x="255" 
d="M316 726l-17 -43c-26 9 -45 16 -77 16c-57 0 -83 -40 -83 -97v-51h117v-43h-117v-508h-59v508h-76v43h77v52c0 84 44 144 135 144c52 0 79 -10 100 -21z" />
    <glyph glyph-name="g" unicode="g" horiz-adv-x="570" 
d="M509 45c0 -148 -84 -225 -227 -225c-71 0 -138 9 -183 31v48c42 -19 113 -34 174 -34c128 0 179 63 179 169v65c-23 -54 -81 -102 -180 -102c-135 0 -222 88 -222 272v27c0 177 87 277 233 277c90 0 148 -46 170 -102v85h56v-511zM452 235v90c0 133 -57 203 -167 203
c-113 0 -175 -88 -175 -227v-37c0 -165 70 -225 173 -225c104 0 169 79 169 196z" />
    <glyph glyph-name="h" unicode="h" horiz-adv-x="577" 
d="M507 0h-59v417c0 61 -43 106 -132 106c-69 0 -154 -46 -184 -120v-403h-59v737h58v-281c28 61 108 117 202 117c117 0 174 -61 174 -160v-413z" />
    <glyph glyph-name="i" unicode="i" horiz-adv-x="217" 
d="M146 624h-75v85h75v-85zM139 0h-59v561h59v-561z" />
    <glyph glyph-name="j" unicode="j" horiz-adv-x="221" 
d="M152 624h-75v85h75v-85zM144 -40c0 -90 -55 -133 -122 -133c-46 0 -89 10 -107 15v46c15 -4 51 -14 99 -14c46 0 72 28 72 86v601h58v-601z" />
    <glyph glyph-name="k" unicode="k" horiz-adv-x="516" 
d="M511 0h-71l-267 290l-40 -38v-252h-60v737h58v-431l256 256h67l-238 -239z" />
    <glyph glyph-name="l" unicode="l" horiz-adv-x="207" 
d="M133 0h-58v737h58v-737z" />
    <glyph glyph-name="m" unicode="m" horiz-adv-x="948" 
d="M881 0h-59v419c0 62 -47 106 -128 106c-54 0 -149 -28 -187 -121v-404h-60v416c0 72 -50 109 -133 109c-76 0 -155 -53 -182 -123v-402h-59v555h55l2 -102c19 52 100 120 201 120c93 0 154 -39 168 -123c37 69 113 123 209 123c118 0 173 -69 173 -153v-420z" />
    <glyph glyph-name="n" unicode="n" horiz-adv-x="577" 
d="M507 0h-59v421c0 61 -48 104 -128 104s-154 -45 -188 -120v-405h-59v555h55l2 -102c24 58 100 120 207 120c103 0 170 -57 170 -163v-410z" />
    <glyph glyph-name="o" unicode="o" horiz-adv-x="610" 
d="M560 264c0 -175 -97 -275 -256 -275c-154 0 -254 93 -254 275v36c0 159 90 274 254 274c181 0 256 -120 256 -274v-36zM501 278v8c0 143 -56 239 -195 239c-134 0 -197 -93 -197 -239v-8c0 -167 68 -242 195 -242c133 0 197 79 197 242z" />
    <glyph glyph-name="p" unicode="p" horiz-adv-x="581" 
d="M531 264c0 -186 -81 -271 -221 -271c-99 0 -162 54 -179 96v-256h-58v722h54l3 -97c24 58 91 115 179 115c160 0 222 -114 222 -248v-61zM471 267v47c0 124 -54 211 -172 211c-72 0 -134 -41 -167 -115v-256c10 -50 72 -116 171 -116c107 0 168 68 168 229z" />
    <glyph glyph-name="q" unicode="q" horiz-adv-x="581" 
d="M508 -167h-58v275c-25 -88 -104 -116 -172 -116c-131 0 -228 66 -228 260v58c0 172 96 261 230 261c72 0 145 -29 173 -93l19 84h36v-729zM450 172v254c-35 71 -96 98 -165 98c-104 0 -175 -72 -175 -228v-33c0 -181 79 -226 174 -226c98 0 145 53 166 135z" />
    <glyph glyph-name="r" unicode="r" horiz-adv-x="488" 
d="M456 425h-51c1 67 -42 101 -115 101c-76 0 -137 -55 -158 -127v-399h-59v555h55l2 -106c19 64 87 124 177 124c105 0 155 -67 149 -148z" />
    <glyph glyph-name="s" unicode="s" horiz-adv-x="417" 
d="M394 153c0 -120 -85 -164 -194 -164c-58 0 -129 9 -168 31v51c28 -18 83 -38 166 -38c88 0 143 34 143 114c0 72 -68 104 -152 130s-145 63 -145 148c0 91 69 147 174 147c67 0 107 -12 144 -30v-52c-29 17 -81 33 -142 33c-80 0 -122 -40 -122 -90
c0 -63 46 -86 130 -114c88 -29 166 -61 166 -166z" />
    <glyph glyph-name="t" unicode="t" horiz-adv-x="400" 
d="M368 508h-189v-363c0 -74 43 -107 108 -107c37 0 65 7 85 13v-45c-21 -7 -62 -14 -96 -14c-96 0 -155 45 -155 170v347h-116v42l116 2l13 148h45v-150h189v-43z" />
    <glyph glyph-name="u" unicode="u" horiz-adv-x="577" 
d="M503 0h-55l-2 109c-31 -66 -107 -119 -202 -119c-105 0 -175 57 -175 155v411h59v-403c0 -70 40 -116 140 -116c71 0 144 48 176 119v400h59v-556z" />
    <glyph glyph-name="v" unicode="v" horiz-adv-x="543" 
d="M541 558l-243 -558h-54l-242 558h60l211 -490l208 490h60z" />
    <glyph glyph-name="w" unicode="w" horiz-adv-x="824" 
d="M410 479l-165 -479h-54l-187 558h60l157 -493l166 493h49l161 -493l166 493h57l-197 -558h-54z" />
    <glyph glyph-name="x" unicode="x" horiz-adv-x="516" 
d="M513 0h-69l-191 246l-187 -246h-62l219 290l-204 267h63l175 -225l170 225h62l-201 -267z" />
    <glyph glyph-name="y" unicode="y" horiz-adv-x="543" 
d="M541 558l-320 -725h-58l76 172l-237 553h61l209 -488l211 488h58z" />
    <glyph glyph-name="z" unicode="z" horiz-adv-x="482" 
d="M465 0h-446v49l374 457h-364v45h425v-49l-373 -457h384v-45z" />
    <glyph glyph-name="braceleft" unicode="{" horiz-adv-x="395" 
d="M345 -110h-97c-90 0 -124 56 -124 126l-1 250c0 38 -15 52 -83 52v46c68 0 84 9 84 46v201c0 69 37 126 124 126h97v-47h-84c-67 0 -78 -39 -78 -87v-190c0 -42 -22 -69 -71 -73c50 -3 70 -28 70 -70l1 -241c0 -58 11 -95 78 -95h84v-44z" />
    <glyph glyph-name="bar" unicode="|" horiz-adv-x="417" 
d="M234 -200h-52v938h52v-938z" />
    <glyph glyph-name="braceright" unicode="}" horiz-adv-x="395" 
d="M51 -110v44h84c67 0 78 37 78 95l1 241c0 42 20 67 70 70c-49 4 -71 31 -71 73v190c0 48 -11 87 -78 87h-84v47h97c87 0 124 -57 124 -126v-201c0 -37 16 -46 84 -46v-46c-68 0 -83 -14 -83 -52l-1 -250c0 -70 -34 -126 -124 -126h-97z" />
    <glyph glyph-name="asciitilde" unicode="~" horiz-adv-x="636" 
d="M608 354c0 -76 -51 -136 -140 -136c-73 0 -114 48 -154 96c-39 47 -84 97 -144 97c-56 0 -86 -42 -86 -94c0 -35 14 -71 32 -98h-48c-19 26 -37 63 -37 107c0 76 52 141 140 141c78 0 115 -46 162 -101c36 -46 77 -94 138 -94c51 0 84 41 84 96c0 34 -13 69 -32 98h48
c20 -28 37 -60 37 -112z" />
    <glyph glyph-name="dagger" unicode="&#x2020;" horiz-adv-x="418" 
d="M414 498h-177l-6 -665h-45l-6 665h-173v38h173v201h57v-201h177v-38z" />
    <glyph glyph-name="degree" unicode="&#xb0;" horiz-adv-x="357" 
d="M344 588c0 -86 -73 -159 -160 -159c-88 0 -160 73 -160 159c0 88 72 160 160 160c87 0 160 -72 160 -160zM303 588c0 67 -51 120 -119 120s-119 -53 -119 -120c0 -65 51 -120 119 -120s119 55 119 120z" />
    <glyph glyph-name="cent" unicode="&#xa2;" horiz-adv-x="581" 
d="M479 21c-25 -12 -68 -20 -105 -21v-70h-38v70c-149 5 -258 109 -258 301v24c0 169 110 267 257 275v78h38v-79c31 -3 80 -9 105 -21v-41c-28 12 -68 23 -125 23c-124 0 -217 -95 -217 -237v-21c0 -168 95 -262 217 -262c60 0 93 11 126 21v-40z" />
    <glyph glyph-name="sterling" unicode="&#xa3;" horiz-adv-x="519" 
d="M474 0h-384v348h-75v38h75v112c0 145 101 249 228 249c57 0 98 -11 129 -24v-42c-37 15 -79 23 -123 23c-92 0 -174 -63 -174 -219v-99h140v-38h-140v-306h324v-42z" />
    <glyph glyph-name="section" unicode="&#xa7;" horiz-adv-x="414" 
d="M373 127c0 -98 -87 -143 -181 -143c-62 0 -125 19 -151 30v54c34 -20 100 -35 146 -35c74 0 124 36 124 93c0 54 -26 86 -115 127c-106 48 -144 85 -144 148c0 42 17 75 46 96c-38 26 -55 59 -55 111c0 93 74 139 175 139c52 0 108 -18 132 -29v-54
c-34 19 -93 34 -141 34c-65 0 -109 -30 -109 -85s37 -86 112 -117c112 -50 142 -93 142 -143c0 -42 -16 -77 -52 -98c47 -31 71 -65 71 -128zM142 471c-22 -14 -35 -40 -35 -64c0 -35 26 -68 102 -101c14 -8 30 -16 48 -24c29 13 38 42 38 63c0 30 -24 60 -94 93
c-18 12 -38 22 -59 33z" />
    <glyph glyph-name="bullet" unicode="&#x2022;" horiz-adv-x="583" 
d="M211 375c0 43 37 80 80 80c44 0 80 -37 80 -80s-35 -80 -80 -80c-44 0 -80 37 -80 80z" />
    <glyph glyph-name="paragraph" unicode="&#xb6;" horiz-adv-x="491" 
d="M410 0h-38v695h-91v-695h-40v429c-134 0 -203 63 -203 143v22c0 76 69 143 208 143h164v-737zM240 473v221c-96 0 -156 -40 -156 -108c0 -66 45 -113 156 -113z" />
    <glyph glyph-name="registered" unicode="&#xae;" horiz-adv-x="716" 
d="M681 338c0 -196 -129 -325 -324 -325c-198 0 -324 118 -324 325c0 187 134 325 324 325c195 0 324 -132 324 -325zM651 338c0 168 -122 296 -294 296c-166 0 -291 -131 -291 -296c0 -190 114 -296 291 -296c184 0 294 126 294 296zM486 167h-34v33c0 71 -39 119 -98 119
h-68v-152h-34v347h113c74 0 106 -36 106 -80v-30c0 -38 -29 -70 -71 -75c57 -14 86 -67 86 -127v-35zM439 410v13c0 38 -17 66 -77 66h-76v-149h76c50 0 77 25 77 70z" />
    <glyph glyph-name="copyright" unicode="&#xa9;" horiz-adv-x="716" 
d="M681 338c0 -196 -129 -325 -324 -325c-198 0 -324 118 -324 325c0 187 133 325 324 325c195 0 324 -132 324 -325zM651 338c0 168 -122 296 -294 296c-167 0 -291 -130 -291 -296c0 -190 114 -296 291 -296c184 0 294 126 294 296zM460 170c-18 -11 -61 -22 -96 -22
c-89 0 -158 56 -158 169v25c0 108 72 169 159 169c37 0 77 -11 95 -21v-28c-17 10 -54 22 -90 22c-74 0 -125 -54 -125 -147v-15c0 -94 50 -146 124 -146c38 0 74 13 91 22v-28z" />
    <glyph glyph-name="trademark" unicode="&#x2122;" horiz-adv-x="690" 
d="M653 432h-34v245l-121 -121h-19l-119 119v-243h-28v297h22l141 -141l140 141h18v-297zM275 702h-111v-270h-34v270h-111v27h256v-27z" />
    <glyph glyph-name="acute" unicode="&#xb4;" 
d="M353 769l-147 -173h-49l133 173h63z" />
    <glyph glyph-name="dieresis" unicode="&#xa8;" 
d="M392 658c0 -19 -15 -35 -35 -35s-35 15 -35 35c0 19 14 35 35 35c20 0 35 -16 35 -35zM180 658c0 -19 -15 -35 -35 -35c-21 0 -35 16 -35 35c0 18 14 35 35 35s35 -17 35 -35z" />
    <glyph glyph-name="notequal" unicode="&#x2260;" horiz-adv-x="520" 
d="M459 165h-262l-61 -84l-29 19l48 65h-94v44h123l113 151h-236v43h265l79 109l30 -18l-68 -91h92v-43h-121l-112 -151h233v-44z" />
    <glyph glyph-name="infinity" unicode="&#x221e;" horiz-adv-x="712" 
d="M629 329c0 -79 -52 -129 -135 -129c-69 0 -116 46 -157 98c-41 -53 -85 -99 -152 -99c-91 0 -144 52 -144 134c0 78 50 128 143 128c65 0 110 -48 153 -103c45 56 93 104 159 104c82 0 133 -53 133 -133zM592 329c0 53 -34 99 -98 99c-53 0 -92 -40 -136 -99
c40 -54 78 -95 136 -95s98 38 98 95zM316 329c-41 56 -78 98 -132 98c-68 0 -106 -39 -106 -94c0 -59 39 -100 106 -100c55 0 93 42 132 96z" />
    <glyph glyph-name="plusminus" unicode="&#xb1;" horiz-adv-x="389" 
d="M352 341h-139v-147h-42v147h-137v43h137v148h42v-148h139v-43zM357 0h-323v41h323v-41z" />
    <glyph glyph-name="lessequal" unicode="&#x2264;" horiz-adv-x="389" 
d="M347 141l-318 205v40l318 207v-51l-257 -176l257 -174v-51zM347 0h-318v41h318v-41z" />
    <glyph glyph-name="greaterequal" unicode="&#x2265;" horiz-adv-x="389" 
d="M38 141v51l257 174l-257 176v51l319 -207v-40zM38 0v41h319v-41h-319z" />
    <glyph glyph-name="yen" unicode="&#xa5;" horiz-adv-x="571" 
d="M570 737l-267 -400v-47h157v-33h-157v-78h157v-33h-157v-146h-55v146h-158v33h158v78h-158v33h158v47l-250 400h60l221 -352l231 352h60z" />
    <glyph glyph-name="mu" unicode="&#xb5;" horiz-adv-x="528" 
d="M103 27v-194h-54l1 723h59v-403c0 -70 40 -116 140 -116c71 0 144 48 176 119v400h59v-556h-55l-2 109c-31 -66 -107 -119 -202 -119c-50 0 -92 13 -122 37z" />
    <glyph glyph-name="mu" unicode="&#x3bc;" horiz-adv-x="528" 
d="M103 27v-194h-54l1 723h59v-403c0 -70 40 -116 140 -116c71 0 144 48 176 119v400h59v-556h-55l-2 109c-31 -66 -107 -119 -202 -119c-50 0 -92 13 -122 37z" />
    <glyph glyph-name="partialdiff" unicode="&#x2202;" horiz-adv-x="537" 
d="M517 276c-3 -193 -107 -286 -254 -286c-138 0 -241 113 -241 268c0 164 101 265 237 265c99 0 162 -52 200 -128c-8 191 -89 318 -217 318c-73 0 -106 -17 -147 -41v46c32 16 67 37 148 37c160 0 271 -148 274 -426c0 -6 1 -39 0 -53zM458 274c0 123 -96 210 -194 210
c-86 0 -185 -64 -185 -221v-16c0 -117 78 -222 191 -222s187 94 188 229v20z" />
    <glyph glyph-name="summation" unicode="&#x2211;" horiz-adv-x="593" 
d="M551 0h-499v34l335 336l-336 336v31h446v-42h-363l322 -322l-325 -325h420v-48z" />
    <glyph glyph-name="product" unicode="&#x220f;" horiz-adv-x="601" 
d="M589 694h-111v-694h-59v694h-237v-694h-59v694h-110v43h576v-43z" />
    <glyph glyph-name="pi" unicode="&#x3c0;" horiz-adv-x="577" 
d="M543 517h-93v-517h-56v517h-213v-517h-56v517h-92v37h510v-37z" />
    <glyph glyph-name="integral" unicode="&#x222b;" horiz-adv-x="377" 
d="M401 723l-22 -39c-16 14 -43 22 -64 22c-51 0 -83 -44 -83 -110v-610c0 -98 -60 -159 -137 -159c-44 0 -68 9 -91 24l20 38c16 -14 44 -22 66 -22c51 0 83 45 83 111v610c0 98 59 159 136 159c46 0 69 -9 92 -24z" />
    <glyph glyph-name="ordfeminine" unicode="&#xaa;" horiz-adv-x="406" 
d="M370 283h-45l-1 76c-15 -47 -65 -82 -126 -82c-105 0 -160 55 -160 157v10c0 103 74 159 162 159c65 0 107 -34 123 -67v78c0 54 -32 100 -106 100c-44 0 -89 -14 -112 -25v36c25 10 65 22 123 22c98 0 142 -58 142 -138v-326zM369 173h-322v40h322v-40zM323 427v34
c0 63 -57 110 -119 110c-66 0 -117 -50 -117 -126v-10c0 -96 53 -124 118 -124c57 0 118 43 118 116z" />
    <glyph glyph-name="ordmasculine" unicode="&#xba;" horiz-adv-x="425" 
d="M401 495c0 -137 -55 -223 -184 -223c-118 0 -186 82 -186 223v30c0 146 72 223 185 223c125 0 185 -77 185 -223v-30zM381 173h-333v40h333v-40zM350 506v8c0 142 -41 199 -134 199c-79 0 -134 -57 -134 -199v-8c0 -136 48 -199 134 -199c98 0 134 67 134 199z" />
    <glyph glyph-name="Omega" unicode="&#x3a9;" horiz-adv-x="706" 
d="M655 406c0 -124 -92 -225 -173 -258v-97h167v-51h-210v167c87 35 156 128 156 258v20c0 196 -98 257 -242 257s-242 -93 -242 -257v-20c0 -131 73 -228 156 -258v-167h-210v51h167v97c-83 28 -173 128 -173 267v47c0 147 84 285 303 285c202 0 301 -124 301 -285v-56z
" />
    <glyph glyph-name="Omega" unicode="&#x2126;" horiz-adv-x="706" 
d="M655 406c0 -124 -92 -225 -173 -258v-97h167v-51h-210v167c87 35 156 128 156 258v20c0 196 -98 257 -242 257s-242 -93 -242 -257v-20c0 -131 73 -228 156 -258v-167h-210v51h167v97c-83 28 -173 128 -173 267v47c0 147 84 285 303 285c202 0 301 -124 301 -285v-56z
" />
    <glyph glyph-name="questiondown" unicode="&#xbf;" horiz-adv-x="448" 
d="M235 737h82v-97h-82v97zM26 135c0 80 43 125 111 157c75 34 114 83 114 179v78h50v-88c0 -106 -50 -157 -119 -190c-68 -32 -100 -62 -100 -130c0 -54 36 -106 150 -106c96 0 151 37 186 60v-53c-39 -20 -106 -52 -198 -52c-149 0 -194 76 -194 145z" />
    <glyph glyph-name="exclamdown" unicode="&#xa1;" horiz-adv-x="328" 
d="M207 640h-83v97h83v-97zM198 0h-66l7 559h52z" />
    <glyph glyph-name="logicalnot" unicode="&#xac;" horiz-adv-x="555" 
d="M479 213h-42v113h-385v43h427v-156z" />
    <glyph glyph-name="radical" unicode="&#x221a;" horiz-adv-x="527" 
d="M589 737l-380 -761h-43l-146 226l49 24l118 -192l346 703h56z" />
    <glyph glyph-name="florin" unicode="&#x192;" horiz-adv-x="370" 
d="M384 724l-18 -40c-14 10 -40 21 -72 21c-50 0 -86 -28 -86 -101v-163h135v-35h-135v-440c0 -87 -59 -140 -133 -140c-40 0 -74 8 -98 23l17 39c15 -11 42 -21 73 -21c51 0 84 32 84 102v437h-73v35h73v167c0 86 63 139 136 139c41 0 74 -8 97 -23z" />
    <glyph glyph-name="approxequal" unicode="&#x2248;" horiz-adv-x="636" 
d="M599 440c0 -75 -52 -131 -130 -131c-84 0 -122 50 -158 102c-35 51 -72 102 -142 101c-50 -1 -90 -40 -90 -101c0 -35 15 -73 28 -99h-35c-14 25 -32 61 -32 105c0 73 51 134 132 134c84 0 123 -56 161 -108c34 -49 68 -96 138 -96c52 0 89 42 89 102c0 32 -14 74 -28 98
h36c14 -25 31 -63 31 -107zM599 181c0 -76 -52 -132 -130 -132c-84 0 -122 50 -158 102c-36 51 -72 102 -142 102c-50 -1 -90 -40 -90 -101c0 -36 15 -74 28 -99h-35c-14 25 -32 60 -32 104c0 74 51 134 132 134c84 0 123 -55 161 -108c34 -48 68 -95 138 -95
c52 0 89 41 89 101c0 32 -14 74 -28 99h36c14 -25 31 -64 31 -107z" />
    <glyph glyph-name="Delta" unicode="&#x394;" horiz-adv-x="598" 
d="M594 0h-595l279 737h41zM510 55l-219 595l-224 -595h443z" />
    <glyph glyph-name="Delta" unicode="&#x2206;" horiz-adv-x="598" 
d="M594 0h-595l279 737h41zM510 55l-219 595l-224 -595h443z" />
    <glyph glyph-name="guillemotleft" unicode="&#xab;" horiz-adv-x="564" 
d="M526 109l-268 166v45l268 170v-51l-224 -141l224 -138v-51zM295 109l-268 166v45l268 170v-51l-223 -141l223 -138v-51z" />
    <glyph glyph-name="guillemotright" unicode="&#xbb;" horiz-adv-x="564" 
d="M269 109v51l224 138l-224 141v51l269 -170v-45zM39 109v51l223 138l-223 141v51l268 -170v-45z" />
    <glyph glyph-name="ellipsis" unicode="&#x2026;" horiz-adv-x="857" 
d="M760 0h-84v109h84v-109zM474 0h-84v109h84v-109zM189 0h-84v109h84v-109z" />
    <glyph glyph-name="nbspace" horiz-adv-x="128" 
 />
    <glyph glyph-name="endash" unicode="&#x2013;" 
d="M457 306h-414v44h414v-44z" />
    <glyph glyph-name="emdash" unicode="&#x2014;" horiz-adv-x="833" 
d="M775 306h-715v44h715v-44z" />
    <glyph glyph-name="quotedblleft" unicode="&#x201c;" horiz-adv-x="389" 
d="M335 526h-87v120c0 75 40 100 95 100v-30c-42 0 -60 -12 -60 -79h52v-111zM149 526h-86v120c0 75 40 100 94 100v-30c-42 0 -59 -12 -59 -79h51v-111z" />
    <glyph glyph-name="quotedblright" unicode="&#x201d;" horiz-adv-x="389" 
d="M333 618c0 -75 -39 -100 -95 -100v30c43 0 60 12 60 79h-51v111h86v-120zM148 618c0 -75 -40 -100 -95 -100v30c42 0 60 12 60 79h-52v111h87v-120z" />
    <glyph glyph-name="quoteleft" unicode="&#x2018;" horiz-adv-x="220" 
d="M155 526h-86v120c0 75 40 100 94 100v-30c-42 0 -59 -12 -59 -79h51v-111z" />
    <glyph glyph-name="quoteright" unicode="&#x2019;" horiz-adv-x="220" 
d="M154 618c0 -75 -40 -100 -95 -100v30c42 0 60 12 60 79h-52v111h87v-120z" />
    <glyph glyph-name="divide" unicode="&#xf7;" horiz-adv-x="489" 
d="M286 476c0 -25 -20 -44 -42 -44c-24 0 -42 20 -42 44c0 22 18 42 42 42c21 0 42 -18 42 -42zM430 335h-371v40h371v-40zM286 222c0 -25 -20 -43 -42 -43c-24 0 -42 19 -42 43c0 22 18 42 42 42c23 0 42 -20 42 -42z" />
    <glyph glyph-name="lozenge" unicode="&#x25ca;" horiz-adv-x="610" 
d="M529 334l-226 -226l-225 226l225 226zM471 334l-168 167l-167 -167l167 -168z" />
    <glyph glyph-name="fraction" unicode="&#x2044;" horiz-adv-x="194" 
d="M346 737l-455 -737h-43l455 737h43z" />
    <glyph glyph-name="fraction" unicode="&#x2215;" horiz-adv-x="194" 
d="M346 737l-455 -737h-43l455 737h43z" />
    <glyph glyph-name="currency" unicode="&#xa4;" horiz-adv-x="513" 
d="M461 17c-23 -14 -69 -28 -132 -28c-138 0 -226 95 -236 301h-71v34h68c-1 6 -1 72 -1 77h-67v34h70c8 210 97 312 237 312c63 0 106 -12 136 -30v-47c-29 17 -81 32 -129 32c-110 0 -181 -89 -186 -267h318v-34h-321v-77h321v-34h-317c6 -173 75 -260 181 -260
c54 0 100 13 129 30v-43z" />
    <glyph glyph-name="guilsinglleft" unicode="&#x2039;" horiz-adv-x="331" 
d="M303 113l-274 167v41l274 168v-50l-228 -139l228 -138v-49z" />
    <glyph glyph-name="guilsinglright" unicode="&#x203a;" horiz-adv-x="331" 
d="M29 113v49l228 138l-228 139v50l274 -168v-41z" />
    <glyph glyph-name="daggerdbl" unicode="&#x2021;" horiz-adv-x="419" 
d="M413 366h-180l-2 -533h-44l-2 533h-176v34h175v102h-176v34h174l-1 201h56l-1 -201h179v-34h-181v-102h179v-34z" />
    <glyph glyph-name="periodcentered" unicode="&#xb7;" horiz-adv-x="299" 
d="M196 280h-84v108h84v-108z" />
    <glyph glyph-name="periodcentered" unicode="&#x2219;" horiz-adv-x="299" 
d="M196 280h-84v108h84v-108z" />
    <glyph glyph-name="quotesinglbase" unicode="&#x201a;" horiz-adv-x="220" 
d="M154 -9c0 -75 -40 -100 -95 -100v30c42 0 60 12 60 79h-52v111h87v-120z" />
    <glyph glyph-name="quotedblbase" unicode="&#x201e;" horiz-adv-x="389" 
d="M333 -9c0 -75 -39 -100 -95 -100v30c43 0 60 12 60 79h-51v111h86v-120zM148 -9c0 -75 -40 -100 -95 -100v30c42 0 60 12 60 79h-52v111h87v-120z" />
    <glyph glyph-name="perthousand" unicode="&#x2030;" horiz-adv-x="1200" 
d="M361 562c0 -106 -72 -159 -164 -159c-89 0 -165 49 -165 159v27c0 105 71 159 166 159c92 0 163 -50 163 -159v-27zM664 737l-466 -737h-44l465 737h45zM1160 152c0 -110 -72 -159 -163 -159s-165 48 -165 159v27c0 104 70 159 166 159c91 0 162 -49 162 -159v-27z
M786 152c0 -110 -72 -159 -163 -159s-165 48 -165 159v27c0 104 71 159 166 159c91 0 162 -49 162 -159v-27zM315 567v15c0 95 -52 133 -117 133c-67 0 -124 -41 -120 -133v-15c0 -94 55 -134 119 -134c66 0 118 42 118 134zM1115 156v15c0 96 -53 134 -117 134
c-67 0 -120 -41 -120 -133v-15c0 -94 55 -134 119 -134c65 0 118 42 118 133zM741 156v15c0 96 -52 134 -117 134c-67 0 -120 -41 -120 -133v-15c0 -94 55 -134 119 -134c65 0 118 42 118 133z" />
    <glyph glyph-name="apple" unicode="&#xf8ff;" horiz-adv-x="884" 
d="M634 758c0 -56 -45 -178 -167 -181c2 97 47 177 164 203c2 -11 3 -15 3 -22zM262 758c0 7 1 11 3 22c117 -26 162 -106 164 -203c-122 3 -167 125 -167 181zM452 529c24 0 107 42 158 42c115 0 199 -106 199 -259c0 -165 -125 -382 -224 -382c-35 0 -95 34 -138 34
c-41 0 -103 -34 -138 -34c-99 0 -224 217 -224 382c0 153 84 259 199 259c51 0 146 -42 168 -42zM450 495c-16 1 -58 24 -81 24c-22 0 -47 -105 -47 -177s47 -362 123 -362c77 0 143 254 143 359s-21 180 -55 180s-62 -27 -83 -24zM451 375c-3 30 -4 47 -4 71s6 41 6 41
s6 -16 6 -40s-4 -39 -8 -72zM487 420c3 -27 -3 -85 -33 -101c-5 46 2 88 30 111c2 -5 3 -6 3 -10zM413 420c0 4 1 5 3 10c28 -23 35 -65 30 -111c-30 16 -36 74 -33 101zM378 313c-2 4 -3 4 -3 8c25 32 48 19 68 -12c-24 -39 -55 -13 -65 4zM522 303c2 -4 3 -4 3 -8
c-25 -32 -48 -19 -68 12c24 39 55 13 65 -4zM487 196c0 -4 -1 -5 -3 -10c-28 23 -35 65 -30 111c30 -16 36 -74 33 -101zM413 196c-3 27 3 85 33 101c5 -46 -2 -88 -30 -111c-2 5 -3 6 -3 10zM448 12c-7 37 -1 72 -1 96s-5 82 3 112c11 -37 11 -91 11 -115s-6 -69 -13 -93z
" />
    <glyph glyph-name="circumflex" unicode="&#x2c6;" 
d="M479 598h-56l-173 134l-173 -134h-56l198 173h62z" />
    <glyph glyph-name="tilde" unicode="&#x2dc;" 
d="M439 689c-24 -43 -60 -69 -106 -69c-37 0 -62 11 -90 25c-30 14 -53 26 -80 26c-30 0 -58 -12 -75 -45l-27 21c15 37 56 69 110 69c30 0 58 -13 85 -27c25 -13 49 -24 83 -24s57 19 72 47z" />
    <glyph glyph-name="macron" unicode="&#xaf;" 
d="M418 663h-337v42h337v-42z" />
    <glyph glyph-name="macron" unicode="&#x2c9;" 
d="M418 663h-337v42h337v-42z" />
    <glyph glyph-name="breve" unicode="&#x2d8;" 
d="M413 754c0 -84 -73 -141 -163 -141c-96 0 -163 62 -163 141h52c2 -53 45 -99 111 -99c67 0 108 42 110 99h53z" />
    <glyph glyph-name="dotaccent" unicode="&#x2d9;" 
d="M294 657c0 -23 -19 -41 -43 -41s-43 18 -43 41s19 42 43 42s43 -19 43 -42z" />
    <glyph glyph-name="ring" unicode="&#x2da;" 
d="M375 696c0 -67 -52 -119 -125 -119s-125 52 -125 119c0 69 52 120 125 120s125 -51 125 -120zM340 696c0 49 -43 88 -90 88c-48 0 -90 -39 -90 -88c0 -48 42 -87 90 -87c47 0 90 39 90 87z" />
    <glyph glyph-name="cedilla" unicode="&#xb8;" 
d="M371 -105c0 -60 -51 -96 -116 -96c-28 0 -41 1 -55 5v37c14 -4 31 -6 49 -6c43 0 76 16 76 58c0 38 -25 58 -76 58h-27v61h39v-28c68 0 110 -34 110 -89z" />
    <glyph glyph-name="hungarumlaut" unicode="&#x2dd;" 
d="M465 769l-126 -173h-47l115 173h58zM267 769l-126 -173h-46l115 173h57z" />
    <glyph glyph-name="ogonek" unicode="&#x2db;" 
d="M324 -231c-16 -5 -32 -9 -52 -9c-76 0 -131 41 -131 120c0 72 58 120 141 120h30v-40h-32c-50 0 -87 -24 -87 -80c0 -65 36 -81 80 -81c9 0 29 5 37 9z" />
    <glyph glyph-name="caron" unicode="&#x2c7;" 
d="M479 771l-200 -173h-58l-200 173h52l177 -144l177 144h52z" />
    <glyph glyph-name="Euro" unicode="&#x20ac;" horiz-adv-x="513" 
d="M461 17c-23 -14 -69 -28 -132 -28c-138 0 -226 95 -236 301h-71v34h68c-1 6 -1 72 -1 77h-67v34h70c8 210 97 312 237 312c63 0 106 -12 136 -30v-47c-29 17 -81 32 -129 32c-110 0 -181 -89 -186 -267h318v-34h-321v-77h321v-34h-317c6 -173 75 -260 181 -260
c54 0 100 13 129 30v-43z" />
    <glyph glyph-name="uni0410" unicode="&#x410;" horiz-adv-x="576" 
d="M575 0h-59l-71 211h-314l-70 -211h-60l244 737h78zM430 257l-146 429l-141 -429s288 0 287 0z" />
    <glyph glyph-name="uni0412" unicode="&#x412;" horiz-adv-x="616" 
d="M572 214c0 -140 -86 -214 -238 -214h-244v737h245c130 0 188 -74 188 -169c0 -80 -30 -148 -111 -163c103 -13 160 -94 160 -191zM466 555c0 90 -51 134 -129 134h-189v-265h210c64 0 108 47 108 131zM511 218c0 94 -54 160 -161 160h-202v-330h193c116 0 170 63 170 170
z" />
    <glyph glyph-name="uni0415" unicode="&#x415;" horiz-adv-x="543" 
d="M522 0h-432v737h422v-48h-363v-292h296v-47h-296v-303h373v-47z" />
    <glyph glyph-name="uni0417" unicode="&#x417;" horiz-adv-x="504" 
d="M472 204c0 -139 -84 -216 -241 -216c-65 0 -132 12 -176 31v51c46 -20 108 -32 175 -32c124 0 182 62 182 167c0 110 -78 163 -191 163h-93v46h90c118 0 162 63 162 147c0 77 -46 135 -156 135c-67 0 -124 -15 -156 -29v54c27 11 87 26 156 26c155 0 215 -81 215 -183
c0 -90 -40 -153 -126 -169c87 -16 159 -78 159 -191z" />
    <glyph glyph-name="uni0418" unicode="&#x418;" horiz-adv-x="687" 
d="M90 0h60v32l388 585v-617h59v737h-59v-27l-388 -588v615h-60v-737z" />
    <glyph glyph-name="uni041A" unicode="&#x41a;" horiz-adv-x="611" 
d="M396 376c96 -18 157 -94 157 -376h-61c-1 264 -54 350 -155 350h-188v-350h-59v737h59v-339h184c99 0 138 58 139 339h61c0 -289 -58 -344 -137 -361z" />
    <glyph glyph-name="uni041C" unicode="&#x41c;" horiz-adv-x="850" 
d="M760 0h-55v629l-245 -629h-66l-249 629v-629h-55v737h68l272 -689l269 689h61v-737z" />
    <glyph glyph-name="uni041D" unicode="&#x41d;" horiz-adv-x="664" 
d="M574 0h-60v349h-364v-349h-60v737h60v-339h364v339h60v-737z" />
    <glyph glyph-name="uni041E" unicode="&#x41e;" horiz-adv-x="672" 
d="M624 345c0 -240 -104 -357 -288 -357c-171 0 -288 112 -288 355v42c0 235 106 362 288 362c191 0 288 -128 288 -362v-40zM562 355v20c0 219 -71 324 -226 324c-146 0 -226 -97 -226 -324v-18c0 -222 81 -320 226 -320c146 0 226 84 226 318z" />
    <glyph glyph-name="uni042F" unicode="&#x42f;" horiz-adv-x="611" 
d="M58 0h61c1 264 54 350 155 350h188v-350h59v737h-263c-116 0 -180 -73 -180 -157v-42c0 -93 51 -153 137 -160c-96 -18 -157 -96 -157 -378zM137 536v22c0 74 43 128 130 128h195v-288h-194c-86 0 -131 54 -131 138z" />
    <glyph glyph-name="uni0420" unicode="&#x420;" horiz-adv-x="578" 
d="M543 509c0 -117 -75 -192 -206 -192h-187v-317h-60v737h244c140 0 209 -77 209 -192v-36zM481 508v35c0 87 -49 144 -143 144h-188v-320h192c89 0 139 54 139 141z" />
    <glyph glyph-name="uni0421" unicode="&#x421;" horiz-adv-x="553" 
d="M522 18c-30 -14 -91 -30 -173 -30c-171 0 -302 110 -302 362v30c0 227 107 367 309 367c83 0 139 -16 164 -25v-55c-30 11 -85 28 -171 28c-157 0 -239 -112 -239 -325v-10c0 -241 106 -323 253 -323c72 0 127 16 159 30v-49z" />
    <glyph glyph-name="uni0422" unicode="&#x422;" horiz-adv-x="505" 
d="M500 690h-217v-690h-61v690h-217v47h495v-47z" />
    <glyph glyph-name="uni0425" unicode="&#x425;" horiz-adv-x="568" 
d="M563 0h-66l-216 332l-216 -332h-60l246 380l-233 357h66l202 -308l200 308h60l-231 -356z" />
    <glyph glyph-name="uni0406" unicode="&#x406;" horiz-adv-x="244" 
d="M152 0h-60v737h60v-737z" />
    <glyph glyph-name="uni0456" unicode="&#x456;" horiz-adv-x="217" 
d="M146 624h-75v85h75v-85zM139 0h-59v561h59v-561z" />
    <glyph glyph-name="uni0408" unicode="&#x408;" horiz-adv-x="459" 
d="M363 195c0 -143 -60 -202 -169 -202c-67 0 -123 10 -149 24v52c31 -14 90 -25 142 -25c74 0 116 42 116 151v542h60v-542z" />
    <glyph glyph-name="uni0458" unicode="&#x458;" horiz-adv-x="221" 
d="M152 624h-75v85h75v-85zM144 -40c0 -90 -55 -133 -122 -133c-46 0 -89 10 -107 15v46c15 -4 51 -14 99 -14c46 0 72 28 72 86v601h58v-601z" />
    <glyph glyph-name="uni0405" unicode="&#x405;" horiz-adv-x="575" 
d="M529 186c0 -119 -89 -196 -271 -196c-113 0 -176 18 -216 35v57c34 -18 109 -43 218 -43c155 0 210 68 210 142c0 73 -40 114 -181 168c-172 67 -219 118 -219 221c0 101 88 177 255 177c76 0 132 -16 163 -26v-52c-53 15 -106 27 -167 27c-135 0 -192 -57 -192 -120
c0 -73 25 -111 189 -175c148 -58 211 -108 211 -215z" />
    <glyph glyph-name="uni0455" unicode="&#x455;" horiz-adv-x="417" 
d="M394 153c0 -120 -85 -164 -194 -164c-58 0 -129 9 -168 31v51c28 -18 83 -38 166 -38c88 0 143 34 143 114c0 72 -68 104 -152 130s-145 63 -145 148c0 91 69 147 174 147c67 0 107 -12 144 -30v-52c-29 17 -81 33 -142 33c-80 0 -122 -40 -122 -90
c0 -63 46 -86 130 -114c88 -29 166 -61 166 -166z" />
    <glyph glyph-name="uni2116" unicode="&#x2116;" horiz-adv-x="1061" 
d="M580 0h-44l-392 631v-631h-54v737h46l391 -632v632h53v-737zM1011 567c0 -124 -56 -185 -168 -185c-100 0 -169 57 -169 185c0 117 68 181 168 181c108 0 169 -65 169 -181zM1001 287h-314v31h314v-31zM961 567c0 93 -43 140 -119 140c-67 0 -117 -47 -117 -140
c0 -104 49 -143 118 -143c79 0 118 43 118 143z" />
    <glyph glyph-name="uni0401" unicode="&#x401;" horiz-adv-x="543" 
d="M522 0h-432v737h422v-48h-363v-292h296v-47h-296v-303h373v-47zM432 838c0 -19 -15 -35 -35 -35s-35 15 -35 35c0 19 14 35 35 35c20 0 35 -16 35 -35zM220 838c0 -19 -15 -35 -35 -35c-21 0 -35 16 -35 35c0 18 14 35 35 35s35 -17 35 -35z" />
    <glyph glyph-name="uni0451" unicode="&#x451;" horiz-adv-x="567" 
d="M534 261h-424c0 -155 84 -223 202 -223c90 0 152 26 183 43v-49c-39 -28 -114 -43 -194 -43c-115 0 -251 65 -251 270v40c0 174 104 275 245 275c150 0 239 -104 239 -273v-40zM474 307c0 146 -68 216 -177 216c-104 0 -185 -70 -187 -216h364zM438 658
c0 -19 -15 -35 -35 -35s-35 15 -35 35c0 19 14 35 35 35c20 0 35 -16 35 -35zM226 658c0 -19 -15 -35 -35 -35c-21 0 -35 16 -35 35c0 18 14 35 35 35s35 -17 35 -35z" />
    <glyph glyph-name="uni0407" unicode="&#x407;" horiz-adv-x="244" 
d="M152 0h-60v737h60v-737zM270 838c0 -19 -15 -35 -35 -35s-35 15 -35 35c0 19 14 35 35 35c20 0 35 -16 35 -35zM58 838c0 -19 -15 -35 -35 -35c-21 0 -35 16 -35 35c0 18 14 35 35 35s35 -17 35 -35z" />
    <glyph glyph-name="uni0457" unicode="&#x457;" horiz-adv-x="217" 
d="M139 0h-59v561h59v-561zM248 658c0 -19 -15 -35 -35 -35s-35 15 -35 35c0 19 14 35 35 35c20 0 35 -16 35 -35zM36 658c0 -19 -15 -35 -35 -35c-21 0 -35 16 -35 35c0 18 14 35 35 35s35 -17 35 -35z" />
    <glyph glyph-name="uni0430" unicode="&#x430;" horiz-adv-x="549" 
d="M484 0h-51l-4 101c-25 -68 -103 -108 -191 -108c-110 0 -202 60 -202 192v10c0 111 80 193 212 193c79 0 147 -33 180 -96v121c0 58 -35 114 -147 114c-68 0 -137 -19 -175 -40v49c37 20 102 37 183 37c142 0 195 -81 195 -156v-417zM428 188v15c0 72 -67 142 -171 142
c-97 0 -164 -60 -164 -143v-15c0 -99 68 -150 164 -150c108 0 171 70 171 151z" />
    <glyph glyph-name="uni0440" unicode="&#x440;" horiz-adv-x="581" 
d="M531 264c0 -186 -81 -271 -221 -271c-99 0 -162 54 -179 96v-256h-58v722h54l3 -97c24 58 91 115 179 115c160 0 222 -114 222 -248v-61zM471 267v47c0 124 -54 211 -172 211c-72 0 -134 -41 -167 -115v-256c10 -50 72 -116 171 -116c107 0 168 68 168 229z" />
    <glyph glyph-name="uni0441" unicode="&#x441;" horiz-adv-x="512" 
d="M469 27c-31 -17 -82 -38 -163 -38c-154 0 -256 84 -256 281v24c0 183 99 281 253 281c76 0 132 -18 159 -32v-59c-38 20 -92 38 -157 38c-111 0 -194 -66 -194 -234v-10c0 -178 82 -237 195 -237c62 0 128 20 163 41v-55z" />
    <glyph glyph-name="uni0443" unicode="&#x443;" horiz-adv-x="543" 
d="M541 558l-320 -725h-58l76 172l-237 553h61l209 -488l211 488h58z" />
    <glyph glyph-name="uni0445" unicode="&#x445;" horiz-adv-x="516" 
d="M513 0h-69l-191 246l-187 -246h-62l219 290l-204 267h63l175 -225l170 225h62l-201 -267z" />
    <glyph glyph-name="uni0435" unicode="&#x435;" horiz-adv-x="567" 
d="M534 261h-424c0 -155 84 -223 202 -223c90 0 152 26 183 43v-49c-39 -28 -114 -43 -194 -43c-115 0 -251 65 -251 270v40c0 174 104 275 245 275c150 0 239 -104 239 -273v-40zM474 307c0 146 -68 216 -177 216c-104 0 -185 -70 -187 -216h364z" />
    <glyph glyph-name="uni0419" unicode="&#x419;" horiz-adv-x="687" 
d="M90 0v737h60v-615l388 588v27h59v-737h-59v617l-388 -585v-32h-60zM509 921c0 -86 -72 -145 -163 -145c-97 0 -163 63 -163 145h42c2 -55 48 -103 120 -103c74 0 119 44 121 103h43z" />
    <glyph glyph-name="uni0403" unicode="&#x403;" horiz-adv-x="543" 
d="M412 949l-147 -173h-49l133 173h63zM150 686v-686h-60v737h404v-51h-344z" />
    <glyph glyph-name="uni041F" unicode="&#x41f;" horiz-adv-x="660" 
d="M570 0h-60v688h-360v-688h-60v737h480v-737z" />
    <glyph glyph-name="uni040F" unicode="&#x40f;" horiz-adv-x="656" 
d="M302 0h-212v737h60v-688h356v688h60v-737h-212v-180h-52v180z" />
    <glyph glyph-name="uni0426" unicode="&#x426;" horiz-adv-x="657" 
d="M90 0v737h60v-688h352v688h60v-688h43v-229h-52v180h-463z" />
    <glyph glyph-name="uni0413" unicode="&#x413;" horiz-adv-x="507" 
d="M150 686v-686h-60v737h404v-51h-344z" />
    <glyph glyph-name="uni0411" unicode="&#x411;" horiz-adv-x="616" 
d="M148 378h193c116 0 170 -57 170 -164s-54 -166 -170 -166h-193v330zM334 426h-186v263h349v48h-407v-737h244c152 0 238 70 238 214s-86 212 -238 212z" />
    <glyph glyph-name="uni042C" unicode="&#x42c;" horiz-adv-x="616" 
d="M148 378h193c116 0 170 -57 170 -164s-54 -166 -170 -166h-193v330zM148 737h-58v-737h244c152 0 238 70 238 214s-86 212 -238 212h-186v311z" />
    <glyph glyph-name="uni042A" unicode="&#x42a;" horiz-adv-x="743" 
d="M217 690v-690h234c152 0 238 70 238 214s-86 212 -238 212h-176v311h-275v-47h217zM275 378h183c116 0 170 -57 170 -164s-54 -166 -170 -166h-183v330z" />
    <glyph glyph-name="uni042B" unicode="&#x42b;" horiz-adv-x="616" 
d="M148 378h173c116 0 170 -57 170 -164s-54 -166 -170 -166h-173v330zM148 737h-58v-737h224c152 0 238 70 238 214s-86 212 -238 212h-166v311zM726 0h-60v737h60v-737z" />
    <glyph glyph-name="uni0427" unicode="&#x427;" horiz-adv-x="623" 
d="M112 523v214h-58v-214c0 -144 83 -212 235 -212h186v-311h58v737h-58v-378h-193c-116 0 -170 57 -170 164z" />
    <glyph glyph-name="uni0428" unicode="&#x428;" horiz-adv-x="903" 
d="M90 0v737h59v-688h272v688h59v-688h275v688h58v-737h-723z" />
    <glyph glyph-name="uni0429" unicode="&#x429;" horiz-adv-x="908" 
d="M90 0v737h59v-688h272v688h59v-688h275v688h58v-688h43v-229h-52v180h-714z" />
    <glyph glyph-name="uni0404" unicode="&#x404;" horiz-adv-x="553" 
d="M522 18c-30 -14 -91 -30 -173 -30c-181 0 -302 100 -302 362v30c0 237 97 367 309 367c83 0 139 -16 164 -25v-55c-30 11 -85 28 -171 28c-160 0 -233 -94 -239 -298h335v-47h-335c2 -243 98 -313 253 -313c72 0 127 16 159 30v-49z" />
    <glyph glyph-name="uni042D" unicode="&#x42d;" horiz-adv-x="553" 
d="M31 18c30 -14 91 -30 173 -30c181 0 302 100 302 362v30c0 237 -97 367 -309 367c-83 0 -139 -16 -164 -25v-55c30 11 85 28 171 28c160 0 233 -94 239 -298h-335v-47h335c-2 -243 -98 -313 -253 -313c-72 0 -127 16 -159 30v-49z" />
    <glyph glyph-name="uni042E" unicode="&#x42e;" horiz-adv-x="955" 
d="M907 345c0 -240 -104 -357 -268 -357c-151 0 -268 112 -268 355v6h-221v-349h-60v737h60v-339h221c4 226 109 349 268 349c171 0 268 -128 268 -362v-40zM845 355v20c0 219 -71 324 -206 324c-126 0 -206 -97 -206 -324v-18c0 -222 81 -320 206 -320
c126 0 206 84 206 318z" />
    <glyph glyph-name="uni040B" unicode="&#x40b;" horiz-adv-x="750" 
d="M500 690h-217v-264h186c152 0 237 -68 237 -212v-214h-60v214s-54 164 -170 164h-193v-378h-61v690h-217v47h495v-47z" />
    <glyph glyph-name="uni0402" unicode="&#x402;" horiz-adv-x="751" 
d="M500 690h-217v-264h186c152 0 238 -68 238 -212s-86 -214 -238 -214l7 48c116 0 170 59 170 166s-54 164 -170 164h-193v-378h-61v690h-217v47h495v-47z" />
    <glyph glyph-name="uni0416" unicode="&#x416;" horiz-adv-x="973" 
d="M214 376c-79 17 -136 72 -136 361h60c1 -281 40 -339 139 -339h181v339h58v-339h180c99 0 138 58 139 339h60c0 -289 -58 -344 -137 -361c96 -18 157 -94 157 -376h-60c-1 264 -54 350 -155 350h-184v-350h-58v350h-185c-101 0 -154 -86 -155 -350h-60
c0 282 60 358 156 376z" />
    <glyph glyph-name="uni040C" unicode="&#x40c;" horiz-adv-x="611" 
d="M462 949l-147 -173h-49l133 173h63zM396 376c96 -18 157 -94 157 -376h-61c-1 264 -54 350 -155 350h-188v-350h-59v737h59v-339h184c99 0 138 58 139 339h61c0 -289 -58 -344 -137 -361z" />
    <glyph glyph-name="uni0414" unicode="&#x414;" horiz-adv-x="679" 
d="M17 -180v229h43c54 7 79 53 106 246c13 92 29 250 38 442h376v-688h47v-229h-52v180h-506v-180h-52zM152 49h369v640h-265c-9 -183 -30 -355 -38 -415c-20 -146 -42 -208 -66 -225z" />
    <glyph glyph-name="uni0423" unicode="&#x423;" horiz-adv-x="615" 
d="M49 11v52c24 -11 65 -21 106 -21c58 0 93 24 143 133l-288 562h62l225 -442l30 -60l27 59l199 443h58l-260 -572c-61 -132 -104 -174 -191 -174c-44 0 -89 8 -111 20z" />
    <glyph glyph-name="uni0424" unicode="&#x424;" horiz-adv-x="715" 
d="M326 0v88c-172 8 -281 95 -281 263v27c0 170 102 260 281 269v102h60v-102c187 -8 282 -99 282 -269v-25c0 -171 -98 -258 -282 -265v-88h-60zM386 136c140 7 222 73 222 220v18c0 143 -75 217 -222 224v-462zM326 136v462c-140 -7 -222 -76 -222 -224v-16
c0 -138 82 -215 222 -222z" />
    <glyph glyph-name="uni041B" unicode="&#x41b;" horiz-adv-x="727" 
d="M22 23v57c30 -15 58 -23 85 -23c84 0 114 72 135 348c7 89 13 199 21 332h374v-737h-60v689h-261l-18 -290c-20 -312 -58 -400 -179 -400c-34 0 -69 8 -97 24z" />
    <glyph glyph-name="uni0431" unicode="&#x431;" horiz-adv-x="615" 
d="M565 262c0 -174 -97 -273 -256 -273c-154 0 -254 92 -254 273v179c0 177 86 258 270 285l132 19v-52l-132 -16c-139 -17 -210 -79 -218 -213c-1 -6 -3 -40 -3 -47c27 83 99 137 211 137c175 0 250 -113 250 -266v-26zM507 271v8c0 136 -57 227 -196 227
c-134 0 -197 -87 -197 -227v-8c0 -162 72 -235 195 -235c133 0 198 77 198 235z" />
    <glyph glyph-name="uni0432" unicode="&#x432;" horiz-adv-x="521" 
d="M478 159c0 -105 -65 -159 -180 -159h-225v555h230c103 0 150 -55 150 -130c0 -65 -29 -117 -97 -125c80 -9 122 -68 122 -141zM397 415c0 65 -38 95 -106 95h-160v-191h177c55 0 89 34 89 96zM418 162c0 67 -40 112 -121 112h-166v-229h159c88 0 128 42 128 117z" />
    <glyph glyph-name="uni0433" unicode="&#x433;" horiz-adv-x="395" 
d="M381 557v-52h-249v-505h-59v557h308z" />
    <glyph glyph-name="uni0434" unicode="&#x434;" horiz-adv-x="566" 
d="M15 -169v215h42c39 4 70 37 88 196c4 35 25 237 32 315h310v-511h36v-215h-49v169h-410v-169h-49zM147 46h281v466h-198c-6 -74 -23 -246 -27 -279c-14 -117 -29 -164 -56 -187z" />
    <glyph glyph-name="uni0436" unicode="&#x436;" horiz-adv-x="789" 
d="M64 557h57c0 -203 22 -247 106 -247h139v247h57v-247h139c84 0 106 44 106 247h57c0 -217 -39 -255 -104 -267c73 -13 119 -76 119 -290h-58c-1 201 -38 265 -115 265h-144v-265h-57v265h-144c-77 0 -114 -64 -115 -265h-58c0 214 46 277 119 290
c-66 12 -104 50 -104 267z" />
    <glyph glyph-name="uni0437" unicode="&#x437;" horiz-adv-x="411" 
d="M375 154c0 -105 -64 -163 -187 -163c-49 0 -100 9 -133 24v49c35 -16 82 -24 132 -24c86 0 130 40 130 116c0 81 -55 116 -137 116h-72v46h70c86 0 118 44 118 106c0 56 -35 95 -113 95c-50 0 -94 -12 -118 -22v48c21 8 66 20 118 20c123 0 167 -61 167 -139
c0 -68 -30 -116 -95 -127c69 -12 120 -59 120 -145z" />
    <glyph glyph-name="uni0438" unicode="&#x438;" horiz-adv-x="553" 
d="M127 0h-54v557h54v-456l299 442v14h54v-557h-54v454l-299 -440v-14z" />
    <glyph glyph-name="uni0439" unicode="&#x439;" horiz-adv-x="553" 
d="M127 0h-54v557h54v-456l299 442v14h54v-557h-54v454l-299 -440v-14zM439 756c0 -86 -71 -145 -163 -145c-96 0 -163 63 -163 145h42c2 -55 48 -103 121 -103c74 0 119 44 120 103h43z" />
    <glyph glyph-name="uni043A" unicode="&#x43a;" 
d="M379 557h57c0 -217 -38 -255 -104 -267c73 -13 119 -76 119 -290h-58c-1 201 -38 265 -115 265h-147v-265h-58v557h58v-247h142c83 0 106 44 106 247z" />
    <glyph glyph-name="uni043B" unicode="&#x43b;" horiz-adv-x="582" 
d="M16 17v51c23 -12 44 -17 65 -17c51 0 74 46 83 122c12 97 23 233 35 384h310v-557h-59v512h-197c-17 -178 -26 -277 -33 -344c-14 -125 -64 -169 -129 -169c-26 0 -54 6 -75 18z" />
    <glyph glyph-name="uni043C" unicode="&#x43c;" horiz-adv-x="676" 
d="M73 0v557h64l205 -515l203 515h58v-557h-49v418c0 9 1 58 1 58s-16 -41 -22 -58l-163 -418h-59l-166 417c-5 14 -24 61 -24 61s1 -51 1 -62v-416h-49z" />
    <glyph glyph-name="uni043D" unicode="&#x43d;" horiz-adv-x="578" 
d="M505 0h-59v257h-314v-257h-59v557h59v-255h314v255h59v-557z" />
    <glyph glyph-name="uni043E" unicode="&#x43e;" horiz-adv-x="610" 
d="M560 264c0 -175 -97 -275 -256 -275c-154 0 -254 93 -254 275v36c0 159 90 274 254 274c181 0 256 -119 256 -274v-36zM502 278v8c0 143 -57 240 -196 240c-134 0 -197 -93 -197 -240v-8c0 -168 72 -242 195 -242c133 0 198 78 198 242z" />
    <glyph glyph-name="uni043F" unicode="&#x43f;" horiz-adv-x="573" 
d="M73 0v557h427v-557h-59v506h-309v-506h-59z" />
    <glyph glyph-name="uni0442" unicode="&#x442;" horiz-adv-x="458" 
d="M444 506h-185v-506h-59v506h-186v51h430v-51z" />
    <glyph glyph-name="uni0444" unicode="&#x444;" horiz-adv-x="666" 
d="M304 -167v156c-154 0 -254 93 -254 275v36c0 159 90 274 254 274v163h58v-163c179 -1 254 -120 254 -274v-36c0 -175 -96 -274 -254 -275v-156h-58zM304 36v490c-133 -1 -195 -93 -195 -240v-8c0 -168 72 -242 195 -242zM362 36c132 0 196 78 196 242v8
c0 143 -57 240 -196 240v-490z" />
    <glyph glyph-name="uni0446" unicode="&#x446;" horiz-adv-x="568" 
d="M73 0v557h59v-512h301v512h59v-512h36v-213h-49v168h-406z" />
    <glyph glyph-name="uni0447" unicode="&#x447;" horiz-adv-x="502" 
d="M372 0v232h-141c-118 0 -183 67 -183 174v151h58v-151c0 -79 47 -124 121 -124h145v275h57v-557h-57z" />
    <glyph glyph-name="uni0448" unicode="&#x448;" horiz-adv-x="729" 
d="M73 0v557h58v-512h204v512h58v-512h206v512h57v-557h-583z" />
    <glyph glyph-name="uni0449" unicode="&#x449;" horiz-adv-x="735" 
d="M73 0v557h58v-512h204v512h58v-512h206v512h57v-512h36v-213h-49v168h-570z" />
    <glyph glyph-name="uni044A" unicode="&#x44a;" horiz-adv-x="542" 
d="M151 0v515h-146v42h205v-232h131c115 0 173 -62 173 -165c0 -104 -55 -160 -176 -160h-187zM210 45h134c74 0 111 39 111 118c0 73 -36 116 -114 116h-131v-234z" />
    <glyph glyph-name="uni044B" unicode="&#x44b;" horiz-adv-x="636" 
d="M73 0v557h59v-232h126c115 0 173 -62 173 -165c0 -104 -55 -160 -176 -160h-182zM132 45h129c74 0 111 39 111 118c0 73 -36 116 -114 116h-126v-234zM505 0v557h58v-557h-58z" />
    <glyph glyph-name="uni044C" unicode="&#x44c;" horiz-adv-x="469" 
d="M73 0v557h59v-232h136c115 0 173 -62 173 -165c0 -104 -55 -160 -176 -160h-192zM132 45h139c74 0 111 39 111 118c0 73 -36 116 -114 116h-136v-234z" />
    <glyph glyph-name="uni044D" unicode="&#x44d;" horiz-adv-x="548" 
d="M64 28v50c41 -21 110 -40 169 -40c132 0 206 49 208 223h-326v46h325c-4 164 -69 219 -203 219c-58 0 -128 -19 -166 -39v56c29 14 98 32 166 32c177 0 261 -91 261 -281v-24c0 -207 -93 -281 -262 -281c-70 0 -133 17 -172 39z" />
    <glyph glyph-name="uni044E" unicode="&#x44e;" horiz-adv-x="837" 
d="M131 0h-56v560h56v-253h167c1 9 2 26 4 35c16 137 100 232 239 232c170 0 246 -124 246 -274v-36c0 -170 -98 -275 -246 -275c-133 0 -230 85 -241 246c-2 7 -2 18 -3 26h-166v-261zM729 278v8c0 140 -58 240 -186 240c-124 0 -187 -91 -187 -240v-8
c0 -164 73 -242 185 -242c122 0 188 83 188 242z" />
    <glyph glyph-name="uni040E" unicode="&#x40e;" horiz-adv-x="615" 
d="M49 11v52c24 -11 65 -21 106 -21c58 0 93 24 143 133l-288 562h62l225 -442l30 -60l27 59l199 443h58l-260 -572c-61 -132 -104 -174 -191 -174c-44 0 -89 8 -111 20zM481 954c0 -84 -73 -141 -163 -141c-96 0 -163 62 -163 141h52c2 -53 45 -99 111 -99
c67 0 108 42 110 99h53z" />
    <glyph glyph-name="uni045E" unicode="&#x45e;" horiz-adv-x="543" 
d="M541 558l-320 -725h-58l76 172l-237 553h61l209 -488l211 488h58zM435 754c0 -84 -73 -141 -163 -141c-96 0 -163 62 -163 141h52c2 -53 45 -99 111 -99c67 0 108 42 110 99h53z" />
    <glyph glyph-name="uni0454" unicode="&#x454;" horiz-adv-x="548" 
d="M484 28v50c-41 -21 -110 -40 -169 -40c-132 0 -206 49 -208 223h326v46h-325c4 164 69 219 203 219c58 0 128 -19 166 -39v56c-29 14 -98 32 -166 32c-177 0 -261 -91 -261 -281v-24c0 -207 93 -281 262 -281c70 0 133 17 172 39z" />
    <glyph glyph-name="uni0490" unicode="&#x490;" horiz-adv-x="507" 
d="M150 686v-686h-60v737h352v138h52v-189h-344z" />
    <glyph glyph-name="uni045C" unicode="&#x45c;" 
d="M379 557h57c0 -217 -38 -255 -104 -267c73 -13 119 -76 119 -290h-58c-1 201 -38 265 -115 265h-147v-265h-58v557h58v-247h142c83 0 106 44 106 247zM348 769l-147 -173h-49l133 173h63z" />
    <glyph glyph-name="uni045F" unicode="&#x45f;" horiz-adv-x="568" 
d="M259 0h-186v557h59v-512h305v512h59v-557h-186v-178h-51v178z" />
    <glyph glyph-name="uni0491" unicode="&#x491;" horiz-adv-x="395" 
d="M381 505h-249v-505h-59v557h257v76h51v-128z" />
    <glyph glyph-name="uni0453" unicode="&#x453;" horiz-adv-x="395" 
d="M381 557v-52h-249v-505h-59v557h308zM340 769l-147 -173h-49l133 173h63z" />
    <glyph glyph-name="uni044F" unicode="&#x44f;" horiz-adv-x="498" 
d="M49 0h57c1 195 38 253 115 253h152v-253h57v557h-230c-88 0 -136 -56 -136 -120v-36c0 -71 38 -118 104 -123c-73 -13 -119 -65 -119 -278zM120 398v17c0 55 27 97 93 97h160v-213h-156c-64 0 -97 37 -97 99z" />
    <glyph glyph-name="uni0409" unicode="&#x409;" horiz-adv-x="1103" 
d="M22 23v57c30 -15 58 -23 85 -23c84 0 114 70 135 348c7 89 13 199 21 332h372v-311h186c152 0 238 -68 238 -212s-86 -214 -238 -214h-244v689h-261l-18 -290c-20 -312 -58 -400 -179 -400c-34 0 -69 8 -97 24zM828 378h-193v-330h193c116 0 170 59 170 166
s-54 164 -170 164z" />
    <glyph glyph-name="uni040A" unicode="&#x40a;" horiz-adv-x="1038" 
d="M756 0h-244v349h-364v-349h-58v737h58v-339h364v339h58v-311h186c152 0 238 -68 238 -212s-86 -214 -238 -214zM763 378h-193v-330h193c116 0 170 59 170 166s-54 164 -170 164z" />
    <glyph glyph-name="uni0459" unicode="&#x459;" horiz-adv-x="846" 
d="M16 17v51c23 -12 44 -17 65 -17c51 0 74 46 83 122c12 97 23 233 35 384h310v-232h136c115 0 173 -62 173 -165c0 -104 -55 -160 -176 -160h-192v512h-197c-17 -178 -26 -277 -33 -344c-14 -125 -64 -169 -129 -169c-26 0 -54 6 -75 18zM509 45h139c74 0 111 39 111 118
c0 73 -36 116 -114 116h-136v-234z" />
    <glyph glyph-name="uni045A" unicode="&#x45a;" horiz-adv-x="842" 
d="M446 0v257h-314v-257h-59v557h59v-255h314v255h59v-232h136c115 0 173 -62 173 -165c0 -104 -55 -160 -176 -160h-192zM505 45h139c74 0 111 39 111 118c0 73 -36 116 -114 116h-136v-234z" />
    <glyph glyph-name="uni0452" unicode="&#x452;" horiz-adv-x="600" 
d="M353 630h-200v-217c29 61 109 115 202 115c118 0 175 -60 175 -159v-409c0 -90 -56 -133 -123 -133c-46 0 -90 10 -107 15v46c15 -5 51 -15 98 -15s73 28 73 87v412c0 62 -43 107 -133 107c-69 0 -154 -46 -183 -121v-358h-59v630h-102v38h102v69h57v-69h200v-38z" />
    <glyph glyph-name="uni045B" unicode="&#x45b;" horiz-adv-x="600" 
d="M354 630h-200v-217c28 61 108 115 202 115c117 0 174 -60 174 -159v-369h-59v372c0 62 -42 107 -132 107c-70 0 -154 -46 -184 -121v-358h-59v630h-102v38h102v69h58v-69h200v-38z" />
    </font>
</defs>
</svg>
