<svg width="169" height="22" viewBox="0 0 169 22" xmlns="http://www.w3.org/2000/svg"><title>32F6293F-C2C5-43D4-859B-E912F49DE763</title><g fill="none" fill-rule="evenodd"><path d="M15.376 21.885c-1.521-1.466-1.503-4.974-.124-6.803.641-.013 10.059-.283 11.187-4.51.818.155 3.098.634 3.098.634s-1.163 5.01-5.646 8.388c-1.276.961-4.19 2.29-8.515 2.294v-.003z" fill="#D94B53"/><path d="M15.57 21.885c1.522-1.466 1.503-4.974.125-6.803-.642-.013-10.059-.283-11.187-4.51-.818.155-3.098.634-3.098.634s1.162 5.01 5.645 8.388c1.277.961 4.19 2.29 8.515 2.294v-.003z" fill="#F2535C"/><path d="M19.563 6.212c-2.201 0-3.813 1.452-3.911 1.542v.025c1.305.793 1.436 3.783 0 4.576v.044c1.515-.002 2.838-.774 3.911-.773 1.59 0 3.18.773 5.482.773 3.856 0 5.784-1.975 5.784-1.975s-1.552-.292-3.383-1.4c-2.74-1.658-6.183-2.812-7.883-2.812" fill="#E55C64"/><path d="M15.668 12.348c1.436-.793 1.305-3.783 0-4.576v-.025l-.005.005s-1.644-1.547-3.916-1.547c-1.7 0-5.625 1.154-8.365 2.812-1.83 1.108-3.382 1.4-3.382 1.4s2.41 1.975 6.265 1.975c2.38 0 3.758-.772 5.482-.773 1.07-.001 2.35.773 3.916.773h.005v-.044z" fill="#FF656F"/><path d="M26.598 2.085A1.91 1.91 0 0 1 28.502.17a1.91 1.91 0 0 1 1.904 1.916 1.91 1.91 0 0 1-1.904 1.916 1.91 1.91 0 0 1-1.904-1.916" fill="#6DC101"/><path d="M38.089 20.815c2.258 0 3.79-1.265 3.79-3.1 0-1.423-1.08-2.371-2.274-2.53 1.21-.22 2.129-1.201 2.129-2.403 0-1.866-1.516-2.862-3.645-2.862-1.549 0-2.871.648-3.645 1.708l1.226 1.233a2.865 2.865 0 0 1 2.193-1.06c.984 0 1.677.428 1.677 1.313 0 .822-.725 1.218-1.758 1.218h-1.629v1.866h1.694c1.161 0 1.855.41 1.855 1.328 0 .822-.549 1.407-1.726 1.407-.887 0-1.839-.459-2.387-1.154l-1.29 1.328c.677.965 2.064 1.708 3.79 1.708zm9.705 0c2.823 0 4.5-2.309 4.5-5.456 0-3.13-1.677-5.455-4.5-5.455-2.806 0-4.484 2.325-4.484 5.455 0 3.147 1.678 5.456 4.484 5.456zm0-1.882c-1.468 0-2.258-1.565-2.258-3.574 0-2.04.79-3.573 2.258-3.573 1.484 0 2.29 1.534 2.29 3.573 0 2.009-.806 3.574-2.29 3.574zm5.721 1.882c1.984 0 3.42-.728 3.807-5.076l.339-3.795h2.193v8.681h2.177V10.078h-6.338l-.516 5.534c-.274 2.894-.774 3.321-1.662 3.321v1.882zm12.115 0c1.613 0 2.436-.76 3.032-2.15l3.694-8.587h-2.371l-2.032 5.14-2.032-5.14H63.55l3.241 7.48-.16.41c-.291.617-.598.95-1.227.95-.419 0-.822-.175-1.129-.428l-.677 1.724c.484.364 1.258.6 2.032.6zm17.695-10.737v8.681h-2.564v-8.68H78.6v8.68h-2.565v-8.68h-2.161v10.546h11.613V10.078h-2.162zm12.156 10.547l-3.677-5.582 3.436-4.965h-2.517l-3.032 4.791v-4.79h-2.16v10.546h2.16v-2.957l.758-1.17 2.484 4.127h2.548zm9.335 0l-3.194-10.547H99.01l-3.193 10.547h2.339l.5-1.866h3.306l.5 1.866h2.355zm-3.274-3.732H99.09l1.226-4.585 1.226 4.585zm10.443 3.732v-3.81h1.806c2.21 0 3.322-1.566 3.322-3.369 0-1.803-1.112-3.368-3.322-3.368h-3.968v10.547h2.162zm1.548-5.677h-1.548v-3.004h1.548c.822 0 1.37.585 1.37 1.502s-.548 1.502-1.37 1.502zm12.608 5.677l-1.951-4.19c.887-.285 1.87-1.202 1.87-3.02 0-1.945-1.306-3.337-3.273-3.337h-4.016v10.547h2.16v-3.81h1.162l1.645 3.81h2.403zm-3.677-5.677h-1.532v-3.004h1.532c.839 0 1.387.585 1.387 1.502s-.548 1.502-1.387 1.502zm9.592 5.867c2.823 0 4.5-2.309 4.5-5.456 0-3.13-1.677-5.455-4.5-5.455-2.806 0-4.483 2.325-4.483 5.455 0 3.147 1.677 5.456 4.483 5.456zm0-1.882c-1.467 0-2.258-1.565-2.258-3.574 0-2.04.79-3.573 2.258-3.573 1.484 0 2.29 1.534 2.29 3.573 0 2.009-.806 3.574-2.29 3.574zm7.075 1.882c1.968 0 3.355-1.012 3.355-3.242v-7.495h-2.161v7.432c0 .917-.549 1.423-1.403 1.423-.533 0-1-.237-1.34-.585l-.773 1.66c.645.585 1.467.807 2.322.807zm11.824-.19v-1.866h-4v-2.561h3.887v-1.866h-3.887v-2.388h4v-1.866h-6.161v10.547h6.16zm6.13.19c2.097 0 3.08-1.392 3.613-2.657l-1.79-.759c-.307.87-.936 1.534-1.823 1.534-1.451 0-2.322-1.502-2.322-3.574 0-2.071.87-3.573 2.322-3.573.855 0 1.484.585 1.807 1.423l1.79-.775c-.549-1.217-1.532-2.53-3.597-2.53-2.79 0-4.548 2.261-4.548 5.455 0 3.195 1.758 5.456 4.548 5.456zm9.19-.19v-8.681h2.386v-1.866h-6.935v1.866h2.387v8.681h2.161z" fill="#FFF"/></g></svg>