<svg width="30" height="30" viewBox="0 0 30 30" fill="none" xmlns="http://www.w3.org/2000/svg">
<path fill-rule="evenodd" clip-rule="evenodd" d="M8.48334 1.63828C8.00697 1.72699 7.57245 1.96894 7.24563 2.32745C6.75573 2.94746 6.51344 3.72793 6.56587 4.51707V10.6291C6.51344 11.4182 6.75573 12.1987 7.24563 12.8187C7.77036 13.3568 8.50469 13.6362 9.25347 13.5827C9.9929 13.628 10.7155 13.3492 11.2338 12.8187C11.7237 12.1987 11.966 11.4182 11.9136 10.6291V8.36466L10.2083 9.06565V10.7433C10.2418 11.062 10.1502 11.3812 9.95288 11.6333C9.56162 11.9691 8.98462 11.9691 8.59336 11.6333C8.39604 11.3812 8.30443 11.062 8.33796 10.7433V4.40286C8.30524 4.07509 8.40106 3.74742 8.60515 3.48921C8.99254 3.14313 9.57727 3.14313 9.96467 3.48921C10.1606 3.74506 10.252 4.06615 10.2201 4.38711V6.35619H11.9254V4.51707C11.9745 3.72641 11.7279 2.94577 11.2338 2.32745C10.9504 2.01336 10.5817 1.78891 10.1729 1.68159V0L9.32813 0.393816L8.45191 0L8.48334 1.63828ZM1.80347 3.37902V11.7594H2.82507C3.07429 11.7729 3.31781 11.6815 3.49697 11.5074C3.68894 11.2528 3.7774 10.9347 3.74452 10.6174V4.51715C3.7774 4.19976 3.68894 3.88169 3.49697 3.62712C3.31781 3.45297 3.07429 3.36162 2.82507 3.37508L1.80347 3.37902ZM0 1.70122H2.85264C3.60243 1.64173 4.34098 1.91195 4.8762 2.44159C5.3579 3.05606 5.59457 3.82803 5.54024 4.60758V10.5463C5.59457 11.3259 5.3579 12.0978 4.8762 12.7123C4.34098 13.242 3.60243 13.5122 2.85264 13.4527H0.0078585L0 1.70122Z" transform="translate(8.94263 7.76953)" fill="#00019B"/>
<path fill-rule="evenodd" clip-rule="evenodd" d="M8.76075 21.6482L0.752942 8.20703C-1.39647 4.5603 1.3108 0 5.64869 0H21.6328C25.9707 0 28.6819 4.5603 26.513 8.20703L18.5171 21.6482C17.4756 23.3474 15.6287 24.3828 13.6389 24.3828C11.6492 24.3828 9.80201 23.3474 8.76075 21.6482ZM20.0532 1.28369L7.51515 0.283447C3.3777 0.283447 1.95924 5.18262 3.21657 8.17554C3.21657 8.17554 5.99049 16.5007 8.17921 20.3091C10.3677 24.1172 15.5347 23.0815 17.4993 20.0884L25.7036 8.84497C27.4363 6.00952 24.1909 1.28369 20.0532 1.28369Z" transform="translate(1.34912 4.79614)" fill="#BD10E0"/>
<path d="M11.1944 4.07372C13.0255 7.25969 15.3241 13.7183 15.9685 15.6401L17.1669 13.9979L17.2455 13.8876L10.609 2.73474C9.56757 1.03546 7.72054 0 5.73081 0C3.74108 0 1.89405 1.03546 0.852648 2.73474L0 4.16823H1.96463C4.00784 1.27368 9.03728 0.316711 11.1944 4.07372Z" transform="translate(9.17456 0.62793)" fill="#00019B"/>
<path d="M18.9626 1.83124L17.8742 0L17.7327 0.240228L16.6207 2.10692C17.6934 5.11567 16.2514 9.73513 12.2278 9.73513L0 8.77816C0.223967 9.23105 0.444005 9.65637 0.656185 10.0344H14.0864C18.436 10.0344 21.1315 5.47798 18.9626 1.83124Z" transform="translate(8.81299 14.9841)" fill="#00019B"/>
<path d="M7.21913 18.6314C3.08162 18.6314 -0.160008 13.8978 1.57279 11.0741L9.54917 0.145712L7.72993 0L0.763366 11.7121C-1.40558 15.3588 1.3056 19.9192 5.6435 19.9192H7.9814L7.21913 18.6354V18.6314Z" transform="translate(1.31494 5.10327)" fill="#00019B"/>
</svg>
